<?xml version="1.0" standalone="no"?>
<!DOCTYPE svg PUBLIC "-//W3C//DTD SVG 1.1//EN" "http://www.w3.org/Graphics/SVG/1.1/DTD/svg11.dtd" >
<!--
2013-9-30: Created.
-->
<svg>
<metadata>
Created by iconfont
</metadata>
<defs>

<font id="iconfont" horiz-adv-x="1024" >
  <font-face
    font-family="iconfont"
    font-weight="500"
    font-stretch="normal"
    units-per-em="1024"
    ascent="896"
    descent="-128"
  />
    <missing-glyph />
    
    <glyph glyph-name="29" unicode="&#58911;" d="M929.171 115.636C928.371-9.492 737.683-115.071 512-115.071S95.629-9.492 94.829 115.636c-9.836 8.606-19.062 17.523-27.646 26.753C65.757 133.845 65 125.177 65 116.415 65-29.091 265.131-147 512-147c246.868 0 447 117.909 447 263.415 0 8.762-0.757 17.43-2.183 25.974C948.232 133.159 939.007 124.242 929.171 115.636zM929.171 291.246C928.371 166.117 737.683 60.539 512 60.539S95.629 166.117 94.829 291.246c-9.836 8.605-19.062 17.523-27.646 26.753C65.757 309.456 65 300.787 65 292.024c0-145.504 200.131-263.415 447-263.415 246.868 0 447 117.911 447 263.415 0 8.763-0.757 17.432-2.183 25.975C948.232 308.77 939.007 299.852 929.171 291.246zM512 220.185c246.868 0 447 117.91 447 263.416C959 629.059 758.868 747 512 747 265.131 747 65 629.059 65 483.6 65 338.095 265.131 220.185 512 220.185zM512 715.071c226.148 0 417.2-106 417.2-231.471 0-125.472-191.052-231.487-417.2-231.487S94.8 358.128 94.8 483.6C94.8 609.072 285.852 715.071 512 715.071z"  horiz-adv-x="1024" />

    
    <glyph glyph-name="qingchuhuancun" unicode="&#58902;" d="M512-62.620967c-246.331291 0-445.99982 199.668529-445.99982 445.99982S265.668709 829.37765 512 829.37765s445.99982-199.668529 445.99982-445.99982S758.331291-62.620967 512-62.620967zM512 773.627928c-215.528752 0-390.249075-174.720324-390.249075-390.249075s174.720324-390.249075 390.249075-390.249075 390.249075 174.720324 390.249075 390.249075S727.528752 773.627928 512 773.627928zM658.037051 411.281343l78.830393-78.830393c21.770839-21.770839 21.770839-57.059554 0-78.830393L559.665603 76.418716c-21.770839-21.769816-57.059554-21.769816-78.830393 0l-275.934516 275.934516c-21.770839 21.770839-21.770839 57.059554 0 78.858022l78.634942 78.634942 39.414685 39.415708 59.122539 59.122539c21.770839 21.770839 57.059554 21.770839 78.830393 0l78.830393-78.830393 98.538247 98.565876c21.770839 21.770839 57.059554 21.770839 78.830393 0l39.415708-39.414685c21.770839-21.770839 21.770839-57.059554 0-78.830393L658.037051 411.281343zM263.828804 411.281343c-10.899234-10.899234-10.899234-28.544103 0-39.415708l19.707854-19.707854 39.414685 39.414685 39.415708-39.414685-39.415708-39.415708 39.415708-39.414685 59.122539 59.122539 39.414685-39.415708-59.122539-59.122539 39.414685-39.414685 39.414685 39.414685 39.414685-39.414685-39.414685-39.415708 19.707854-19.707854c10.899234-10.899234 28.544103-10.899234 39.415708 0l59.122539 59.122539-275.934516 275.962146L263.828804 411.281343zM707.319477 559.129646l-19.707854 19.707854c-5.435803 5.435803-14.272052 5.435803-19.707854 0L539.79095 450.723657l-33.951253 33.951253-25.171286 25.171286-39.414685 39.414685c-10.899234 10.899234-28.544103 10.899234-39.414685 0l-39.414685-39.414685 275.934516-275.934516 39.414685 39.415708c10.871605 10.871605 10.871605 28.544103 0 39.414685l-39.414685 39.415708-25.171286 25.171286-33.951253 33.951253 128.113843 128.11282C712.75528 544.857595 712.75528 553.666214 707.319477 559.129646z"  horiz-adv-x="1024" />

    
    <glyph glyph-name="zhanghu2" unicode="&#58983;" d="M516.3008 857.7024c64.9216 0 127.7952-12.6976 187.1872-37.6832 57.344-24.1664 108.7488-58.9824 152.7808-103.0144 44.2368-44.2368 78.848-95.6416 103.0144-152.7808 24.9856-59.1872 37.6832-122.2656 37.6832-187.1872s-12.6976-127.7952-37.6832-187.1872c-24.1664-57.344-58.9824-108.7488-103.0144-152.7808-44.2368-44.2368-95.6416-78.848-152.7808-103.0144-59.1872-24.9856-122.2656-37.6832-187.1872-37.6832s-127.7952 12.6976-187.1872 37.6832c-57.344 24.1664-108.7488 58.9824-152.7808 103.0144-44.2368 44.2368-78.848 95.6416-103.0144 152.7808-24.9856 59.1872-37.6832 122.2656-37.6832 187.1872s12.6976 127.7952 37.6832 187.1872c24.1664 57.344 58.9824 108.7488 103.0144 152.7808 44.2368 44.2368 95.6416 78.848 152.7808 103.0144C388.5056 845.0048 451.3792 857.7024 516.3008 857.7024M516.3008 874.0864C241.664 874.0864 19.0464 651.4688 19.0464 376.832S241.664-120.4224 516.3008-120.4224s497.2544 222.6176 497.2544 497.2544S790.9376 874.0864 516.3008 874.0864L516.3008 874.0864zM516.3008 659.0464c88.064 0 159.744-71.68 159.744-159.744s-71.68-159.744-159.744-159.744-159.744 71.68-159.744 159.744S428.2368 659.0464 516.3008 659.0464M516.3008 675.4304c-97.28 0-176.128-78.848-176.128-176.128s78.848-176.128 176.128-176.128c97.28 0 176.128 78.848 176.128 176.128S613.5808 675.4304 516.3008 675.4304L516.3008 675.4304zM516.3008 309.0432c82.1248 0 159.1296-31.9488 217.2928-89.9072 56.9344-56.9344 88.8832-132.5056 89.9072-212.992-41.3696-33.3824-87.4496-59.5968-137.216-78.0288-53.8624-19.8656-110.592-30.1056-168.7552-30.1056-58.5728 0-115.9168 10.24-170.1888 30.5152-50.176 18.6368-96.6656 45.4656-138.24 79.4624 1.6384 79.6672 33.3824 154.4192 89.9072 211.1488C357.1712 277.0944 434.3808 309.0432 516.3008 309.0432M516.3008 325.4272c-178.7904 0-323.584-144.7936-323.584-323.584 0-0.4096 0-1.024 0-1.4336 87.6544-74.1376 201.1136-118.784 324.8128-118.784 122.6752 0 234.9056 43.8272 322.3552 116.736 0 1.2288 0 2.4576 0 3.4816C839.8848 180.6336 695.0912 325.4272 516.3008 325.4272L516.3008 325.4272z"  horiz-adv-x="1024" />

    
    <glyph glyph-name="jiangzhangxunzhang" unicode="&#59181;" d="M512 457.161143c-131.392 0-237.714286-106.375314-237.714286-237.732571 0-131.285943 106.322286-237.714286 237.714286-237.714286 131.320686 0 237.714286 106.428343 237.714286 237.714286C749.714286 350.785829 643.322514 457.161143 512 457.161143zM512 0c-121.000229 0-219.428571 98.428343-219.428571 219.428571s98.428343 219.446857 219.428571 219.446857S731.428571 340.4288 731.428571 219.428571 633.000229 0 512 0zM621.714286 253.215086l-77.143771 0-23.892114 73.3568c-2.428343 7.572114-14.928457 7.572114-17.3568 0l-23.857371-73.3568L402.285714 253.215086c-3.964343 0-7.464229-2.570971-8.6784-6.357943-1.250743-3.7504 0.107886-7.857371 3.320686-10.2144l62.392686-45.321143-23.8208-73.393371c-1.214171-3.785143 0.142629-7.892114 3.357257-10.2144 3.143314-2.322286 7.572114-2.322286 10.7136 0L512 153.034971l62.429257-45.321143c1.570743-1.142857 3.465143-1.749943 5.357714-1.749943s3.785143 0.607086 5.357714 1.749943c3.214629 2.322286 4.571429 6.429257 3.357257 10.2144l-23.8208 73.393371 62.392686 45.321143c3.214629 2.357029 4.571429 6.464 3.320686 10.2144C629.178514 250.642286 625.678629 253.215086 621.714286 253.215086zM859.428571 856.660114c-0.285257 0.554057-0.643657 1.053257-0.643657 1.910857 0 20.196571-16.356571 36.571429-36.571429 36.571429-1.322057 0-2.143086 0.321829-2.642286 0.8576L203.499886 896c-0.4992-0.535771-1.322057-0.8576-2.642286-0.8576C181.143771 895.1424 165.357714 879.482514 164.571429 859.982629l0-234.517943 128.6784-136.232229C214.785829 425.536 164.571429 328.393143 164.571429 219.428571c0-191.857371 155.499886-347.428571 347.428571-347.428571 191.8208 0 347.428571 155.5712 347.428571 347.428571 0 108.964571-50.249143 206.089143-128.714971 269.7856L859.428571 625.464686 859.428571 856.660114zM630.857143 822.857143l0-277.321143c-37.141943 13.553371-77.035886 21.321143-118.857143 21.321143s-81.7152-7.767771-118.857143-21.302857L393.142857 822.857143 630.857143 822.857143zM237.714286 822.857143l100.571429 0 0-274.8032-100.571429 106.481371L237.714286 822.857143zM786.285714 219.428571c0-151.250286-123.035429-274.285714-274.285714-274.285714s-274.285714 123.035429-274.285714 274.285714 123.035429 274.285714 274.285714 274.285714S786.285714 370.678857 786.285714 219.428571zM786.285714 654.535314l-100.571429-106.481371L685.714286 822.857143l100.571429 0L786.285714 654.535314z"  horiz-adv-x="1024" />

    
    <glyph glyph-name="iconzhuanqu23" unicode="&#58953;" d="M667.037588 455.915437c-9.864748 9.866011-25.860544 9.866011-35.725292 0l-120.190776-120.190776-118.436342 118.436342c-9.866011 9.866011-25.860544 9.866011-35.725292 0s-9.866011-25.860544 0-35.725292l118.436342-118.436342-118.436342-118.435078c-9.866011-9.866011-9.866011-25.860544 0-35.725292 4.933637-4.933637 11.396879-7.399193 17.862646-7.399193 6.464505 0 12.930272 2.466819 17.862646 7.399193l118.436342 118.435078 120.190776-120.190776c4.932374-4.932374 11.398142-7.399193 17.862646-7.399193s12.930272 2.466819 17.862646 7.399193c9.866011 9.866011 9.866011 25.860544 0 35.725292l-120.190776 120.190776 120.190776 120.190776C676.903599 430.056156 676.903599 446.050689 667.037588 455.915437zM776.697967 564.710598c-70.707887 70.704097-164.712241 109.641432-264.697335 109.641432-99.992673 0-193.999553-38.938598-264.704914-109.642695-70.706623-70.70536-109.647748-164.714767-109.647748-264.712492 0-99.988884 38.939861-193.995764 109.647748-264.702388s164.714767-109.647748 264.704914-109.647748c99.983831 0 193.989449 38.939861 264.698598 109.647748 70.710413 70.70915 109.654063 164.71603 109.654063 264.702388C886.35203 399.993305 847.409643 494.002711 776.697967 564.710598zM511.999368-23.828353c-178.559518 0-323.828984 145.268204-323.828984 323.826458 0 178.560781 145.269467 323.830247 323.828984 323.830247s323.828984-145.269467 323.828984-323.830247C835.828353 121.438588 690.558886-23.828353 511.999368-23.828353z"  horiz-adv-x="1024" />

    
    <glyph glyph-name="custom-service" unicode="&#58907;" d="M510.257 717.734c-139.235 0-252.1-110.566-252.1-246.949 0-136.378 112.864-246.945 252.1-246.945 139.231 0 252.096 110.566 252.096 246.945-0.055 136.382-112.864 246.949-252.096 246.949v0 0zM219.136 375.951v228.022c-3.191 0-6.381-0.111-9.462-0.389 51.674 112.194 166.721 190.346 300.584 190.346 133.858 0 248.96-78.151 300.578-190.346-3.135 0.222-6.27 0.389-9.461 0.389v-228.023c64.27 0 116.448 51.058 116.448 113.983 0 42.772-24.072 80.001-59.622 99.542-50.051 141.136-186.711 242.469-347.943 242.469-161.236 0-297.841-101.332-347.948-242.468-35.55-19.485-59.623-56.77-59.623-99.486-0-62.981 52.123-114.039 116.449-114.039v0 0zM761.794 245.228c-65.893-60.242-154.292-97.133-251.536-97.133-97.077 0-185.366 36.724-251.204 96.795-117.793-59.344-195.164-165.097-195.164-308.698h895.753c0 143.878-78.771 249.746-197.85 309.036v0 0zM761.794 245.228z"  horiz-adv-x="1025" />

    
    <glyph glyph-name="huodongzhongxin" unicode="&#58918;" d="M779.840164-6.570393c-4.067642 0-8.135284 0.855484-11.965519 2.609431l-240.340857 110.056582-240.326531-110.056582c-9.44-4.348028-20.577664-3.226484-28.994358 2.973728-8.402367 6.185886-12.792351 16.439414-11.460006 26.792203l32.82357 256.374018L98.585319 470.857207c-7.308453 7.616468-9.847276 18.61394-6.620791 28.65769 3.226484 10.057053 11.68411 17.520025 22.050202 19.469424l260.525572 48.870034L502.524185 794.476769c10.183943 18.038842 39.83731 18.038842 50.02023 0l127.983883-226.622414 260.539898-48.870034c10.366092-1.949398 18.824741-9.41237 22.050202-19.469424 3.226484-10.04375 0.687662-21.040199-6.620791-28.65769l-180.992167-188.679243 32.82357-256.374018c1.332345-10.351766-3.057639-20.606317-11.460006-26.792203C791.847639-4.676254 785.858228-6.570393 779.840164-6.570393zM527.534811 166.426683c4.081968 0 8.163937-0.86981 11.965519-2.609431l205.273177-94.010117L716.77585 288.504042c-1.108241 8.613168 1.739621 17.267269 7.756661 23.537066l153.73743 160.259984-221.474161 41.548278c-8.331759 1.570775-15.541975 6.733355-19.707854 14.111392l-109.553115 193.96769L417.997046 527.961786c-4.16588-7.378038-11.376095-12.540617-19.707854-14.111392l-221.474161-41.548278 153.73743-160.259984c6.018064-6.269797 8.864902-14.924921 7.756661-23.537066l-27.997658-218.696907 205.25885 94.010117C519.370875 165.556872 523.452843 166.426683 527.534811 166.426683z"  horiz-adv-x="1024" />

    
    <glyph glyph-name="smiling" unicode="&#58941;" d="M511.998 829.458c-246.018 0-445.457-199.44-445.457-445.458 0-246.017 199.439-445.457 445.457-445.457 246.019 0 445.46 199.44 445.46 445.457 0 246.018-199.44 445.458-445.46 445.458zM511.998-33.809c-230.747 0-417.81 187.056-417.81 417.809 0 230.754 187.062 417.81 417.81 417.81 230.748 0 417.809-187.056 417.809-417.81 0-230.752-187.060-417.809-417.809-417.809zM319.959 458.872c26.563 0 48.095 27.031 48.095 60.375s-21.532 60.375-48.095 60.375-48.095-27.031-48.095-60.375 21.532-60.375 48.095-60.375zM692.442 458.872c26.562 0 48.095 27.031 48.095 60.375s-21.533 60.375-48.095 60.375-48.095-27.031-48.095-60.375 21.533-60.375 48.095-60.375zM216.020 348.355c10.431-154.387 138.948-276.393 295.98-276.393 157.031 0 285.546 122.006 295.977 276.393l-591.957-0z"  horiz-adv-x="1024" />

    
    <glyph glyph-name="weibiaoti37" unicode="&#58934;" d="M532 763.2l0-303.2 303.2 0c26.4 0 48-21.6 48-48 0-26.4-21.6-48-48-48l-303.2 0 0-303.2c0-26.4-21.6-48-48-48-26.4 0-48 21.6-48 48l0 303.2-303.2 0c-26.4 0-48 21.6-48 48 0 26.4 21.6 48 48 48l303.2 0 0 303.2c0 26.4 21.6 48 48 48C510.4 811.2 532 789.6 532 763.2z"  horiz-adv-x="1024" />

    
    <glyph glyph-name="yonghu" unicode="&#58962;" d="M815.814506 596.649355c0-165.306834-134.011812-299.350645-299.350645-299.350645s-299.350645 134.011812-299.350645 299.350645c0 165.306834 134.011812 299.350645 299.350645 299.350645s299.350645-134.011812 299.350645-299.350645zM763.52814 283.219149c-69.75782-55.070279-156.219118-85.661323-247.064279-85.661323-91.901128 0-179.1944 31.295022-249.27221 87.421268-184.698228-67.805881-267.19165-304.758476-267.19165-412.979094l1027.711884 0c0 107.260648-83.133402 342.549295-264.183744 411.18715z"  horiz-adv-x="1028" />

    
    <glyph glyph-name="chongzhi" unicode="&#58884;" d="M693.095316 614.239143l-131.632817-223.935003 103.718481 0 0-49.478312-120.846571 0 0-68.193688 120.846571 0 0-50.115659-120.846571 0 0-99.276514-62.164435 0L482.169975 222.516481 356.88022 222.516481l0 50.115659 125.289755 0 0 68.193688L356.88022 340.825828l0 49.478312 106.893053 0-130.364204 223.935003 70.099647 0c60.895822-111.230417 97.898433-181.748475 111.012698-211.562689l1.268612 0c4.441967 12.262847 16.596562 37.002611 36.474732 74.219292l74.536749 137.343396L693.095316 614.239143 693.095316 614.239143zM693.095316 614.239143M784.470674 274.551478c-15.061578 0-27.247797-12.187435-27.247797-27.247797s12.187435-27.247797 27.247797-27.247797l71.98128 0c-61.204765-128.843816-192.338895-217.986027-344.464118-217.986027-210.6687 0-381.478892 170.782216-381.478892 381.475243 0 210.696675 170.810191 381.465512 381.478892 381.465512 192.121175 0 350.635679-142.189179 377.137878-326.968701l55.08064 0C917.333181 653.046759 734.255278 819.506206 511.987837 819.506206 271.197197 819.506206 76.012135 624.311414 76.012135 383.543883c0-240.762665 195.185062-435.972053 435.975702-435.972053 164.236031 0 307.128238 90.894915 381.475243 225.064956l0-61.57574c0-15.061578 12.187435-27.247797 27.276989-27.247797 15.004412 0 27.247797 12.187435 27.247797 27.247797L947.987865 247.302465c0 3.297419 0 27.247797-27.247797 27.247797L784.470674 274.550262 784.470674 274.551478zM784.470674 274.551478"  horiz-adv-x="1024" />

    
    <glyph glyph-name="xiazai45" unicode="&#58906;" d="M805.695-77.009c-1.963 0-3.541 0.054-4.672 0.111L203.268-76.898c-40.042 0-63.091 16.865-75.375 31.013-26.919 31.003-24.757 73.037-23.543 84.7l0 359.53 64 0 0-363.913-0.302-1.883c-0.761-6.401-0.833-26.277 8.289-36.609 1.93-2.186 7.803-8.838 26.932-8.838l600.308 0 0.75-0.082c2.153-0.076 22.315-0.434 34.996 11.557 8.454 7.994 12.74 21.212 12.74 39.288L852.063 398.621l64 0 0-360.756c0-45.871-18.247-72.371-33.555-86.525C854.974-74.12 820.092-77.008 805.695-77.009zM136.349 368.312 38 368.312c-13.291 0-25.197 8.214-29.916 20.639-4.718 12.425-1.266 26.472 8.674 35.294l472.219 419.09c12.02 10.668 30.087 10.766 42.223 0.227l478.781-415.791c9.955-8.646 13.588-22.513 9.151-34.929s-16.035-20.84-29.216-21.219l-104.938-3.012c-0.313-0.01-0.624-0.014-0.936-0.014-17.247 0-31.471 13.729-31.97 31.082-0.507 17.666 13.403 32.398 31.069 32.905l22.931 0.658L510.448 776.821 122.266 432.312l14.083 0c17.673 0 32-14.327 32-32S154.022 368.312 136.349 368.312zM403-45.201c-14.912 0-27 12.088-27 27L376 207.645c0.002 4.866 1.234 24.9 20.021 43.995 22.8 23.173 61.458 34.923 114.901 34.923 52.638 0 90.876-11.911 113.652-35.403 19.225-19.828 20.464-40.706 20.426-46.244l0-222.25c0-14.912-12.088-27-27-27s-27 12.088-27 27L591 204.598c-0.179 1.167-1.308 6.104-8.017 11.541-7.569 6.134-26.997 16.424-72.062 16.424-52.272 0-70.848-13.145-76.408-18.795-2.73-2.775-3.876-5.136-4.357-6.627-0.073-0.225-0.123-0.411-0.157-0.549l0-224.793C430-33.113 417.912-45.201 403-45.201z"  horiz-adv-x="1024" />

    
    <glyph glyph-name="zelvgongyongshouqi1" unicode="&#58954;" d="M498.095 749.866l403.416-403.415c17.387-17.387 45.576-17.387 62.963 0s17.387 45.576 0 62.963L499.888 874 35.302 409.414c-17.388-17.387-17.388-45.575 0-62.963 17.387-17.387 45.576-17.387 62.964 0L498.095 749.866zM498.817 303.927l402.693-402.693c17.387-17.387 45.576-17.387 62.963 0s17.387 45.576 0 62.963L499.888 428.781 35.302-35.804c-17.388-17.387-17.388-45.576 0-62.963 17.387-17.387 45.576-17.387 62.964 0L498.817 303.927z"  horiz-adv-x="1024" />

    
    <glyph glyph-name="sanjiaoright" unicode="&#59063;" d="M755.974268 384 268.025732 749.024292l0-730.048584L755.974268 384"  horiz-adv-x="1024" />

    
    <glyph glyph-name="jiantou-copy-copy" unicode="&#58984;" d="M927.804 543.807l-415.804-415.632-415.803 415.632 63.616 63.445 352.209-352.017 352.102 352.017z"  horiz-adv-x="1024" />

    
    <glyph glyph-name="gonggao" unicode="&#58898;" d="M797.590945 115.98178c-6.070252 0-11.975752 3.133364-15.259542 8.750291-4.925173 8.420787-2.090615 19.22997 6.332219 24.15412 40.406269 23.622 74.28589 57.45148 97.961102 97.830119 24.3772 41.573861 37.262672 89.184205 37.262672 137.672546 0 48.073902-12.67774 95.325066-36.667108 136.648217-23.294542 40.116673-56.669674 73.887824-96.522334 97.652064-8.376785 4.990664-11.118222 15.83157-6.123464 24.208355 4.992711 8.372691 15.833617 11.119245 24.209378 6.122441 44.99375-26.835182 82.678024-64.959477 108.97597-110.252033 27.109428-46.705742 41.441854-100.084463 41.441854-154.379043 0-54.762231-14.561647-108.550275-42.113143-155.534356-26.733874-45.589314-64.979944-83.785242-110.603027-110.455671C803.68678 116.759493 800.620955 115.98178 797.590945 115.98178L797.590945 115.98178zM704.394357 230.39253c-6.070252 0-11.975752 3.12927-15.259542 8.746198-4.925173 8.41874-2.090615 19.23611 6.330172 24.15412 20.732184 12.119015 38.112016 29.476335 50.257637 50.193169 12.503778 21.319561 19.10922 45.736671 19.10922 70.609151 0 24.658609-6.500041 48.8905-18.805298 70.081125-11.946077 20.579711-29.070082 37.907355-49.514717 50.101071-8.378831 4.991688-11.116175 15.83157-6.123464 24.207331 4.996804 8.373715 15.835663 11.115152 24.207331 6.119371 25.586748-15.256472 47.01785-36.94033 61.9704-62.696947 15.423271-26.568099 23.577998-56.936757 23.577998-87.812975 0-31.149441-8.284687-61.739133-23.959691-88.470961-15.198144-25.927509-36.948517-47.64616-62.893422-62.817698C710.488145 231.172289 707.418226 230.39253 704.394357 230.39253L704.394357 230.39253zM566.925449-10.136615c-31.956829 0-63.730487 21.708418-68.219731 24.8909l-33.998325 23.716144c-7.995091 5.575995-9.958816 16.579607-4.38282 24.581861 5.581112 7.999185 16.584724 9.957793 24.584931 4.38282l34.19787-23.852244c8.958022-6.328126 38.501896-23.121604 55.770188-17.244756 6.217608 2.118244 12.101619 4.115738 12.81691 36.707017L587.694471 704.123948c-1.828648 30.618345-8.368598 33.580816-15.926738 37.006845-16.133446 7.308453-43.536562-9.978259-51.861158-16.614399l-0.455371-0.352017L308.919257 566.552709c-47.357588-38.544875-111.886253-36.931121-119.159914-36.610826-44.834114-0.202615-82.775238-33.994232-88.422865-78.798671l-1.222851-12.138458 0-110.508883 1.222851-12.146645c5.662977-44.900629 43.759643-78.749552 88.722694-78.797647 0.6191 0.010233 1.238201 0.010233 1.853208 0.010233 60.969607 0 111.988584-33.446763 114.15083-34.883485 3.284813-2.199085 79.546707-53.988612 119.461789-140.396587 4.091178-8.849552 0.228197-19.346627-8.625448-23.431665-8.850575-4.086062-19.34151-0.229221-23.432689 8.623401-35.223223 76.257801-104.660688 124.231419-106.968244 125.807311-1.663896 1.079588-46.193065 29.547966-96.124268 28.963659l-0.207731-0.004093c-62.863746 0-116.127857 47.269583-123.895775 109.955274l-0.050142 0.407276-1.422396 14.117532 0 114.057709 1.471514 14.525831c7.766894 62.681598 61.032028 109.952204 123.895775 109.952204l0.981351-0.029676c0.528026-0.022513 57.3031-2.548032 95.707782 28.900214l0.604774 0.469698L498.097874 752.293017c1.964748 1.539053 12.831236 9.857509 27.221991 16.547885 22.880103 10.637268 43.9817 12.178367 61.022819 4.453429 8.647961-3.917216 17.626449-9.086959 24.672936-20.279882 6.941086-11.023054 10.742668-26.069749 11.965519-47.362704l0.029676-1.010003 0-641.97626-0.00614-0.188288c-0.595564-27.813462-3.975545-58.421574-36.755112-69.568449C579.95009-9.237129 573.434699-10.136615 566.925449-10.136615L566.925449-10.136615z"  horiz-adv-x="1024" />

    
    <glyph glyph-name="xiugaimima" unicode="&#58904;" d="M355.71712 337.03936c-0.512-0.65536-1.04448-1.37216-1.26976-2.23232l-40.18176-148.41856c-2.33472-8.64256 0.06144-17.98144 6.41024-24.53504 4.75136-4.64896 11.01824-7.22944 17.67424-7.22944 2.21184 0 4.42368 0.26624 6.59456 0.86016l146.30912 40.18176c0.22528 0 0.32768-0.22528 0.49152-0.22528 1.69984 0 3.33824 0.63488 4.58752 1.92512l391.168 394.0352c11.63264 11.71456 18.00192 27.68896 18.00192 45.056 0 19.6608-8.2944 39.36256-22.79424 53.94432l-36.94592 37.2736c-14.49984 14.62272-34.05824 22.97856-53.5552 22.97856-17.24416 0-33.0752-6.41024-44.76928-18.10432L356.29056 338.39104C355.88096 338.0224 356.02432 337.46944 355.71712 337.03936L355.71712 337.03936zM849.22368 630.00576l-38.85056-39.1168-62.99648 64.47104 38.31808 38.56384c6.0416 6.12352 17.8176 5.24288 24.73984-1.76128l36.94592-37.29408c3.87072-3.91168 6.08256-9.05216 6.08256-14.15168C853.44256 636.5184 851.92704 632.7296 849.22368 630.00576L849.22368 630.00576zM425.28768 330.83392l282.25536 284.40576 62.99648-64.53248L488.83712 266.89536 425.28768 330.83392 425.28768 330.83392 425.28768 330.83392M373.84192 215.552l20.39808 75.42784 54.39488-54.80448L373.84192 215.552 373.84192 215.552 373.84192 215.552M874.00448 473.84576c-14.82752 0-26.97216-12.14464-27.01312-27.2384l0-326.41024c0-51.95776-51.32288-75.85792-75.63264-75.85792L236.40064 44.3392c-34.0992 0-69.46816 33.71008-75.6736 96.33792L160.72704 637.89056c0 77.80352 56.54528 75.89888 75.6736 75.89888l356.352 0c14.86848 0 26.95168 12.1856 26.95168 27.17696 0 14.97088-12.0832 27.17696-26.95168 27.17696l-360.448 0c-46.63296 0-125.52192-29.22496-125.52192-105.6768l0-525.94688c0-102.83008 64.3072-146.61632 125.52192-146.61632l543.15008 0c69.0176 0 125.5424 43.17184 125.5424 126.13632L900.99712 446.75072C900.89472 461.70112 888.77056 473.84576 874.00448 473.84576L874.00448 473.84576z"  horiz-adv-x="1024" />

    
    <glyph glyph-name="add" unicode="&#58905;" d="M451.318 444.682h-364.036c-33.754 0-60.734-27.168-60.734-60.682 0-33.747 27.191-60.682 60.734-60.682h364.036v-364.036c0-33.754 27.168-60.734 60.682-60.734 33.747 0 60.682 27.191 60.682 60.734v364.036h364.036c33.754 0 60.734 27.168 60.734 60.682 0 33.747-27.191 60.682-60.734 60.682h-364.036v364.036c0 33.754-27.168 60.734-60.682 60.734-33.747 0-60.682-27.191-60.682-60.734v-364.036z"  horiz-adv-x="1024" />

    
    <glyph glyph-name="xiangqing" unicode="&#58951;" d="M725.018581 407.197328c-0.013303 0.013303-0.027629 0.025583-0.040932 0.038886L307.936371 824.277492c-11.989055 11.989055-31.426757 11.989055-43.415812 0-11.988032-11.989055-11.988032-31.426757 0-43.415812l395.374816-395.373793-395.374816-395.374816c-11.988032-11.989055-11.988032-31.425733 0-43.414789 5.994528-5.994528 13.851473-8.991792 21.707394-8.991792s15.712867 2.997264 21.707394 8.991792l417.08221 417.08221C737.007637 375.770572 737.007637 395.208273 725.018581 407.197328z"  horiz-adv-x="1024" />

    
    <glyph glyph-name="bangzhu" unicode="&#59260;" d="M505.181 153.982c-26.499 0-47.972-21.481-47.972-47.968s21.474-47.977 47.972-47.977c26.48 0 47.948 21.488 47.948 47.977s-21.469 47.968-47.948 47.968zM505.181 825.872c-246.883 0-447.689-200.826-447.689-447.683 0-246.874 200.806-447.705 447.689-447.705 246.849 0 447.683 200.83 447.683 447.705 0 246.858-200.836 447.683-447.683 447.683zM505.181-5.273c-211.46 0-383.455 172.045-383.455 383.459 0 211.431 171.995 383.436 383.455 383.436 211.391 0 383.455-172.003 383.455-383.436 0-211.417-172.064-383.459-383.455-383.459zM505.162 664.795c-88.146 0-159.892-71.093-159.892-158.448 0-17.648 14.347-31.981 31.981-31.981 17.675 0 31.985 14.332 31.985 31.981 0 52.987 42.167 94.498 95.946 94.498 52.873 0 95.926-43.366 95.926-96.677 0-21.324-26.753-48.058-52.634-73.965-35.309-35.267-75.282-75.237-75.282-127.563v-54.067c0-17.663 14.341-31.985 31.989-31.985 17.634 0 31.97 14.363 31.97 32.016v54.071c0 25.807 28.719 54.524 56.54 82.282 35.074 35.074 71.383 71.346 71.383 119.221-0.002 88.573-71.718 160.617-159.914 160.617z"  horiz-adv-x="1024" />

    
    <glyph glyph-name="tongzhi" unicode="&#58915;" d="M648.490101-117.692421 648.490101-47.34831C844.095194-1.066596 989.80068 174.230518 989.80068 384 989.80068 593.735351 844.095194 769.032465 648.490101 815.34831L648.490101 861.834811 648.490101 885.658289C882.151323 838.216119 1058.062796 631.654956 1058.062796 384 1058.062796 136.310913 882.151323-70.25025 648.490101-117.692421ZM68.262116 179.213652C30.547297 179.213652 0 209.760949 0 247.475768L0 520.524232C0 558.20492 30.547297 588.786348 68.262116 588.786348L238.917406 588.786348 546.096927 895.965869 546.096927-127.965869 238.917406 179.213652 68.262116 179.213652ZM477.834811 42.65529 477.834811 725.276448 273.048463 520.490101 68.262116 520.490101 68.262116 247.441637 273.048463 247.441637 477.834811 42.65529ZM819.14539 401.065529C819.14539 283.449903 749.040197 182.456103 648.490101 136.891141L648.490101 214.607559C709.926005 254.063062 750.883274 322.598227 750.883274 401.065529 750.883274 479.4987 709.926005 548.033864 648.490101 587.489367L648.490101 665.205786C749.040197 619.640824 819.14539 518.647024 819.14539 401.065529Z"  horiz-adv-x="1059" />

    
    <glyph glyph-name="tixian" unicode="&#59016;" d="M873.673761 830.932052 150.324192 830.932052c-46.025243 0-83.463923-37.439704-83.463923-83.463923l0-166.926824c0-46.025243 37.438681-83.463923 83.463923-83.463923l23.473621 0 0-476.54551c0-46.02422 37.438681-83.463923 83.463923-83.463923L766.736217-62.932052c46.025243 0 83.463923 37.439704 83.463923 83.463923L850.20014 497.078405l23.473621 0c46.025243 0 83.463923 37.438681 83.463923 83.463923L957.137685 747.468129C957.137685 793.492348 919.699004 830.932052 873.673761 830.932052zM766.736217-7.288754 257.261737-7.288754c-15.32401 0-27.821649 12.471033-27.821649 27.821649L229.440088 636.211209l565.116755 0 0-615.678314C794.557866 5.181255 782.060227-7.288754 766.736217-7.288754zM901.49541 580.541305c0-15.350616-12.497639-27.821649-27.821649-27.821649l-23.473621 0L850.20014 637.079996c13.20372 2.173502 23.473621 13.122879 23.473621 26.951839 0 15.377222-12.443403 27.821649-27.821649 27.821649l-667.707294 0c-15.377222 0-27.821649-12.443403-27.821649-27.821649 0-13.82896 10.269901-24.778336 23.473621-26.951839l0-84.359316-23.473621 0c-15.32401 0-27.821649 12.471033-27.821649 27.821649L122.50152 747.468129c0 15.350616 12.497639 27.821649 27.821649 27.821649l723.349569 0c15.32401 0 27.821649-12.471033 27.821649-27.821649L901.494387 580.541305zM610.296235 490.448404l-98.29777-98.29777-98.29777 98.29777c-10.868535 10.867512-28.473495 10.867512-39.341007 0s-10.867512-28.472472 0-39.339983l88.679715-88.653109-47.273676 0c-15.377222 0-27.821649-12.443403-27.821649-27.821649s12.443403-27.821649 27.821649-27.821649L485.101885 306.812013l0-44.285622-69.87851 0c-16.572444 0-30.048363-13.449313-30.048363-30.048363 0-16.601096 13.475919-30.048363 30.048363-30.048363L485.101885 202.429665l0-60.315714c0-15.377222 12.443403-27.821649 27.821649-27.821649s27.821649 12.443403 27.821649 27.821649l0 60.315714 69.226664 0c16.572444 0 30.048363 13.44829 30.048363 30.048363 0 16.600073-13.475919 30.048363-30.048363 30.048363l-69.226664 0 0 44.285622 69.771063 0c15.377222 0 27.821649 12.443403 27.821649 27.821649s-12.443403 27.821649-27.821649 27.821649l-49.556673 0 88.679715 88.653109c10.867512 10.867512 10.867512 28.472472 0 39.339983S621.16477 501.315916 610.296235 490.448404z"  horiz-adv-x="1024" />

    
    <glyph glyph-name="huodongzhongxin1" unicode="&#58919;" d="M369.911376 586.551182c-0.109494 0.022513-0.220011 0.046049-0.330528 0.067538l-12.749372-26.334785c-0.794086-1.799996-2.216481-2.249227-3.967358-2.50096-91.295286-13.131065-181.733041-27.043936-272.736685-39.639812-18.485003-2.558265-33.067116-17.546631-33.067116-36.606733 0-10.316973 4.248767-19.642362 11.091616-26.321482 59.727313-58.304917 118.78129-117.817336 177.950901-175.699628l0-0.001023 20.850887-20.400632 0.022513-0.102331c0.490164-0.448208 0.873903-1.01205 1.108241-1.647523 0.334621-1.062192 0.119727-2.053776-0.051165-2.997264-17.09433-94.202499-28.927843-165.621085-46.6556-278.4365l-0.004093-0.033769 0.002047-0.01228c-0.040932-0.706081-0.063445-1.417279-0.063445-2.13257 0-20.316721 16.476253-36.792974 36.792974-36.792974 6.596232 0 12.788258 1.738597 18.142196 4.780887l0.331551 0.110517c80.374562 38.950104 154.436348 76.428693 243.366773 128.3359 1.019213 0.594541 2.026146 1.24434 3.088338 1.24434 0.821715 0 1.588171-0.236384 2.235924-0.644683 96.982822-50.182936 229.245148-118.732172 246.459205-127.507022l0.130983-0.01535c5.193279-2.802836 11.134595-4.3951 17.447371-4.3951 20.316721 0 36.792974 16.476253 36.792974 36.792974 0 4.668323-1.119497 8.203846-2.226714 12.632715-36.243459 144.978952-68.704778 290.930045-104.883769 435.95607-2.990101 9.282411-11.69946 16.000416-21.975501 16.000416-12.745279 0-23.082718-10.337439-23.082718-23.083741 0-1.166569 0-2.330068 0.25378-3.434216 35.19764-153.425322 65.599044-273.252431 98.622158-405.181159l0 0 3.966335-15.851013-14.764262 7.625678 0 0c-180.870394 93.432972-69.560262 36.18513-219.73454 113.457028-1.76111 1.000793-3.574409 1.791809-5.433756 2.580778-16.939811 6.534833-31.507598-1.948375-36.734646-4.754281-75.559906-40.558741-151.378709-82.433454-228.460272-119.499651 14.647605 94.611821 28.134781 170.814364 42.918485 263.591397 2.326998 14.868639-4.281513 25.111934-14.322194 35.154661-61.812811 61.819974-125.07053 122.343419-187.487092 183.581132 113.731274 15.565511 148.363026 20.7373 260.902148 39.603996 5.938246 0.994654 10.707876 1.63115 14.758122 3.246951 7.703449 3.666506 13.650905 9.776667 17.20894 17.058514 39.622416 79.905888 77.108169 160.516834 118.561279 239.548818 41.559535-83.341127 68.645426-133.413546 121.247458-245.251703 3.603061-7.66047 11.790534-11.561313 19.320021-13.821797l0.047072-0.023536 0.090051-0.017396c89.978291-13.059434 169.923064-25.039279 248.607124-36.679387l22.116717-3.665483-14.229073-13.982456 0.001023-0.002047c-37.326117-36.626175-35.536354-34.94079-139.870608-136.656403-14.010085-13.658068-5.640464-39.346123 15.256472-39.96727 6.470365-0.192382 12.643971 2.289136 16.835434 6.583952 57.062624 57.744145 109.155049 111.460558 163.213245 166.358889 0 0 4.985548 6.588045 6.117324 8.655124 12.133342 25.109887-5.272074 49.673329-26.066679 52.847625-91.112114 14.57188-182.688809 25.839505-273.823436 40.11565-1.12973 0.137123-2.369977 0.624217-2.911306 1.724271-41.180911 83.781148-81.637322 168.011528-123.403564 251.540943l-0.183172 0.182149c-6.129604 11.793604-18.457374 19.851117-32.664957 19.851117-14.496156 0-27.303856-8.260128-33.031301-20.574594-35.723619-76.813456-74.394361-150.867056-110.943788-224.564545L369.911376 586.548112zM234.14525 404.206204c51.256384-52.30118 64.565505-65.701374 92.549859-93.817736l1.524726-1.414209c3.966335-3.486404 9.166777-5.602601 14.861476-5.602601 12.43624 0 22.520923 10.083659 22.520923 22.520923 0 5.389754-1.896186 10.338463-5.056156 14.214746l-0.674359 0.792039c-33.273824 33.938973-59.46023 60.534701-91.76703 93.178169l-0.471744 0.23536c-3.975545 3.52529-9.204639 5.668093-14.934131 5.668093-12.435217 0-22.376637-10.085706-22.520923-22.520923C230.140029 414.113855 230.839971 408.475438 234.14525 404.206204L234.14525 404.206204z"  horiz-adv-x="1024" />

    
    <glyph glyph-name="weixin" unicode="&#58901;" d="M648.76385 508.44222c9.614985 0 19.127639-0.706081 28.563546-1.757017-25.665543 119.509884-153.434531 208.30421-299.276131 208.30421-163.049516 0-296.611441-111.138216-296.611441-252.264421 0-81.462337 44.436048-148.356886 118.690216-200.24158l-29.66667-89.228207 103.690594 51.997258c37.103036-7.344269 66.871013-14.895245 103.898325-14.895245 9.30697 0 18.537192 0.459464 27.689642 1.178849-5.794983 19.831674-9.152451 40.602743-9.152451 62.153571-0.001023 129.58638 111.279433 234.752582 252.17437 234.752582z m-159.484318 80.422658c22.333658 0 37.128619-14.69263 37.128619-37.012986 0-22.231327-14.794961-37.128619-37.128619-37.128618-22.231327 0-44.537356 14.897292-44.537355 37.128618 0 22.319331 22.307052 37.012985 44.537355 37.012986z m-207.587895-74.141604c-22.228257 0-44.664246 14.897292-44.664246 37.128618 0 22.320355 22.435988 37.012985 44.664246 37.012986 22.230304 0 37.026288-14.69263 37.026288-37.012986 0-22.231327-14.794961-37.128619-37.026288-37.128618zM170.461323 157.110503c-3.805676 0-7.568373 1.340531-10.564613 3.936659a16.147772 16.147772 0 0 0-4.761444 17.302061l25.922393 77.976956c-75.800383 56.343239-115.76663 127.492696-115.76663 206.398813 0 148.005892 140.30142 268.413216 312.757166 268.413216 151.496389 0 286.130739-93.717452 314.491671-218.451314a16.037255 16.037255 0 0 0 1.146103-6.002714c0-8.919137-7.221472-16.145725-16.145725-16.145725h-0.209778a15.738449 15.738449 0 0 0-1.786693 0.100284c-10.006911 1.11438-18.763342 1.655709-26.773783 1.655709-130.146129 0-236.031714-98.064456-236.031715-218.603786 0-18.937305 2.859118-38.325887 8.493442-57.630559a16.123212 16.123212 0 0 0-2.207272-13.696953 16.126282 16.126282 0 0 0-12.014638-6.92676c-10.490935-0.824785-19.961634-1.224898-28.959565-1.224897-32.755008 0-60.506049 5.697769-89.886193 11.726065-3.847631 0.787946-7.747451 1.592264-11.731182 2.396583l-98.726536-49.510623a16.163121 16.163121 0 0 0-7.245008-1.713015z m207.586872 541.735232c-154.649196 0-280.465716-105.922425-280.465716-236.121766 0-72.252581 37.611619-135.171586 111.793132-187.005114a16.153912 16.153912 0 0 0 6.075369-18.327414l-17.365506-52.222386 68.820412 34.515095a16.084327 16.084327 0 0 0 10.375301 1.408069 2868.182988 2868.182988 0 0 0 17.37574-3.521196c31.272237-6.417153 57.415664-11.789511 90.695628-10.973936-3.258207 15.768125-4.9088 31.540344-4.9088 47.092551 0 138.345881 120.370485 250.895237 268.324188 250.895237 2.270716 0 4.583388-0.036839 6.948249-0.110517-33.878598 100.784404-148.856259 174.371376-277.667997 174.371377zM489.283626 498.575502c-29.1806 0-60.685127 20.366863-60.685128 53.27332 0 32.838919 31.503505 53.163827 60.685128 53.163827 31.367405 0 53.273321-21.858844 53.27332-53.163827 0.001023-31.366382-21.905916-53.273321-53.27332-53.27332z m0 74.144674c-13.707187 0-28.392654-8.388041-28.392654-20.871354 0-12.550851 14.685467-20.98187 28.392654-20.98187 13.328563 0 20.98187 7.647167 20.98187 20.98187 0 13.46057-7.452739 20.871353-20.98187 20.871354zM281.696754 498.575502c-29.244045 0-60.810994 20.366863-60.810995 53.27332 0 32.838919 31.56695 53.163827 60.810995 53.163827 31.30396 0 53.168943-21.858844 53.168943-53.163827 0-31.366382-21.864984-53.273321-53.168943-53.27332z m0 74.144674c-13.770632 0-28.51852-8.388041-28.518521-20.871354 0-12.366655 15.032368-20.98187 28.518521-20.98187 13.266142 0 20.87647 7.647167 20.876469 20.98187 0 13.266142-7.610328 20.871353-20.876469 20.871354zM942.566316 264.501372c0 118.587885-118.66668 215.252459-251.945149 215.252459-141.126204 0-252.277724-96.664573-252.277724-215.252459 0-118.792547 111.151519-215.252459 252.277724-215.252459 29.537733 0 59.33027 7.448646 88.997963 14.885012l81.356936-44.551682-22.307052 74.126255c59.538001 44.666292 103.897302 103.897302 103.897302 170.792874z m-333.74006 37.115316c-14.769378 0-29.66667 14.69263-29.66667 29.679973 0 14.779611 14.897292 29.6636 29.66667 29.6636 22.435988 0 37.128619-14.885012 37.128619-29.6636 0-14.987343-14.69263-29.679973-37.128619-29.679973z m163.15287 0c-14.667048 0-29.462009 14.69263-29.462009 29.679973 0 14.779611 14.794961 29.6636 29.462009 29.6636 22.230304 0 37.125549-14.885012 37.125549-29.6636 0-14.987343-14.895245-29.679973-37.125549-29.679973zM860.981183 3.438565c-2.659573 0-5.329379 0.651846-7.757685 1.98112l-75.810616 41.516556c-28.223808-7.043417-57.310264-13.833053-86.795808-13.833053-148.005892 0-268.418332 103.804181-268.418333 231.396137 0 127.597073 120.41244 231.401254 268.418333 231.401254 145.325853 0 268.092921-105.969497 268.092921-231.401254 0-62.292742-35.897581-124.727723-101.375876-176.777169l19.110244-63.4808a16.130376 16.130376 0 0 0-5.297656-17.197684 16.096607 16.096607 0 0 0-10.165524-3.605107z m-81.361029 76.841085c2.691295 0 5.361101-0.672312 7.757684-1.98112l46.777373-25.617448-10.95347 36.370349a16.147772 16.147772 0 0 0 5.771447 17.570168c62.839187 47.140647 97.444333 103.20964 97.444333 157.876703 0 107.930151-107.987457 199.10878-235.800447 199.10878-130.199341 0-236.126882-89.318258-236.126882-199.10878 0-109.785405 105.927541-199.103664 236.126882-199.103664 27.635407 0 56.837496 7.321756 85.071537 14.400989a16.390295 16.390295 0 0 0 3.931543 0.484023z m-7.642051 205.190289c-23.87271 0-45.610804 21.843494-45.610804 45.825699 0 23.546276 22.168905 45.810349 45.610804 45.810348 29.380144 0 53.273321-20.551058 53.273321-45.810348 0-25.270547-23.893176-45.825698-53.273321-45.825699z m0 59.344597c-5.728468 0-13.31833-7.705496-13.31833-13.517875 0-5.944386 7.462972-13.534248 13.31833-13.534248 13.507642 0 20.98187 8.004301 20.98187 13.534248-0.001023 5.522784-7.474228 13.517875-20.98187 13.517875z m-163.153894-59.344597c-23.977088 0-45.810349 21.843494-45.810348 45.825699 0 23.546276 22.264073 45.810349 45.810348 45.810348 32.902364 0 53.273321-23.777543 53.273321-45.810348 0-22.526039-19.929912-45.825698-53.273321-45.825699z m0 59.344597c-5.813403 0-13.517875-7.705496-13.517875-13.517875 0-5.944386 7.578606-13.534248 13.517875-13.534248 13.68672 0 20.98187 7.857968 20.98187 13.534248-0.001023 5.522784-7.474228 13.517875-20.98187 13.517875z"  horiz-adv-x="1024" />

    
    <glyph glyph-name="fanhui" unicode="&#58925;" d="M733.090909-81.454545a23.202909 23.202909 0 0 0-16.453818 6.818909l-442.181818 442.158545a23.202909 23.202909 0 0 0 0 32.907636l442.181818 442.205091a23.249455 23.249455 0 1 0 32.907636-32.907636L323.816727 383.976727l425.728-425.704727A23.249455 23.249455 0 0 0 733.090909-81.454545z"  horiz-adv-x="1024" />

    
    <glyph glyph-name="social-qq" unicode="&#58921;" d="M221.76-18.218667a150.229333 69.781333 0 1 1 300.458667 0 150.229333 69.781333 0 1 1-300.458667 0ZM376.448-75.562667c-82.965333 0-150.229333 31.232-150.229333 69.781334 0 1.728 0.298667 3.434667 0.554666 5.141333a35.84 35.84 0 0 1-5.013333-17.6c0-38.528 67.264-69.781333 150.229333-69.781333 79.232 0 143.978667 28.501333 149.653334 64.64-16.789333-29.994667-75.328-52.181333-145.194667-52.181334zM539.989333-18.218667a150.229333 69.781333 0 1 1 300.458667 0 150.229333 69.781333 0 1 1-300.458667 0ZM685.781333-75.562667c82.965333 0 150.229333 31.232 150.229334 69.781334 0 1.728-0.298667 3.434667-0.554667 5.141333 3.157333-5.632 5.013333-11.498667 5.013333-17.6 0-38.528-67.264-69.781333-150.229333-69.781333-79.232 0-143.978667 28.501333-149.653333 64.64 16.768-29.994667 75.328-52.181333 145.194666-52.181334zM865.28 384l-33.770667 108.437333c0 353.045333-285.44 354.218667-300.202666 354.218667-15.338667 0-300.181333-1.173333-300.181334-354.218667L197.333333 384s-114.666667-144-37.333333-269.333333c8.661333-5.994667 9.344-28.010667 56 70.677333 0 0 62.634667-220.693333 313.728-222.570667v-0.085333l1.578667 0.042667 1.578666-0.042667v0.085333c251.072 1.877333 313.728 222.570667 313.728 222.570667 46.677333-98.666667 47.616-78.677333 56-70.677333 77.333333 125.333333-37.333333 269.333333-37.333333 269.333333zM544.448 614.229333a85.333333 60.672 90 1 1 121.344 0 85.333333 60.672 90 1 1-121.344 0ZM388.48 614.229333a85.333333 60.672 90 1 1 121.344 0 85.333333 60.672 90 1 1-121.344 0ZM437.781333 614.229333a43.456 30.890667 90 1 1 61.781334 0 43.456 30.890667 90 1 1-61.781334 0ZM567.488 587.392a6.4 6.4 0 0 0-6.378667 5.738667c-0.405333 3.818667-3.477333 37.76 11.008 53.824 9.834667 10.922667 28.032 10.922667 37.866667 0 14.485333-16.064 11.370667-50.005333 10.986667-53.824a6.186667 6.186667 0 0 0-7.04-5.696 6.421333 6.421333 0 0 0-5.717334 7.04c0.917333 8.810667 1.322667 33.877333-7.744 43.925333a12.650667 12.650667 0 0 1-18.837333 0c-9.109333-10.090667-8.704-35.136-7.765333-43.925333a6.4 6.4 0 0 0-5.717334-7.04c-0.234667-0.042667-0.469333-0.042667-0.661333-0.042667zM468.650667 626.282667a13.312 9.472 90 1 1 18.944 0 13.312 9.472 90 1 1-18.944 0ZM693.333333 488.896c-49.344 23.104-128.448 30.677333-160.448 30.677333s-111.104-7.552-160.448-30.677333c-23.552-8-32.896-14.229333-32.896-21.781333 0-7.552 59.562667-52.010667 123.114667-79.104 29.866667-15.104 38.677333-28.010667 70.229333-28.010667s40.341333 12.885333 70.229334 28.010667c63.552 27.114667 123.114667 71.552 123.114666 79.104 0 7.552-9.344 13.781333-32.896 21.781333zM376.448 464.896s65.770667-46.229333 152.448-46.229333 157.333333 46.229333 157.333333 46.229333-52.437333-34.666667-92.885333-58.666667-45.781333-30.677333-66.218667-30.677333c-20.437333 0-46.677333 24.896-58.453333 30.677333-11.776 5.76-44.224 29.76-92.224 58.666667zM777.322667 420.224c-103.146667-85.994667-245.994667-76.224-245.994667-76.224s-142.848-9.770667-245.994667 76.224c0 0-98.218667-442.453333 245.994667-442.453333s245.994667 442.453333 245.994667 442.453333zM831.552 492.437333s-82.218667-147.562667-300.224-147.562666-300.224 147.562667-300.224 147.562666c-34.666667-95.104-33.770667-108.437333-33.770667-108.437333a416.170667 416.170667 0 0 1 118.442667-91.306667c-2.901333-31.701333-6.869333-80.490667-6.442667-105.365333 0.661333-38.677333 24.277333-41.344 79.146667-46.677333 54.848-5.333333 43.52 9.344 43.52 34.005333v77.888c58.176-11.2 99.328-7.232 99.328-7.232s190.890667-19.562667 333.994667 138.666667c0 0.021333 0.896 13.354667-33.770667 108.458666z"  horiz-adv-x="1024" />

    
    <glyph glyph-name="jilu" unicode="&#58886;" d="M860.48 636.48a22.72 22.72 0 0 1 22.656 22.656V744c0 17.6-14.4 32-32 32h-640c-17.6 0-32-14.4-32-32v-768c0-17.6 14.4-32 32-32h640c17.6 0 32 14.4 32 32v250.432h-0.064l0.064 0.448a22.656 22.656 0 0 1-45.312 0l0.064-0.448h-0.064V394.88a22.656 22.656 0 0 1 45.312 0V572.48h-0.064a22.592 22.592 0 0 1-45.248 0h-0.064V659.136a22.784 22.784 0 0 1 22.72-22.656zM837.824-7.616a6.4 6.4 0 0 0-6.4-6.4H230.848a6.4 6.4 0 0 0-6.4 6.4V725.568a6.4 6.4 0 0 0 6.4 6.4h600.576a6.4 6.4 0 0 0 6.4-6.4v-733.184zM285.248 375.424a16 16 0 0 0-32 0V646.848a16 16 0 0 0 32 0v-271.424zM285.248 240.448a16 16 0 0 0-32 0v62.976a16 16 0 0 0 32 0v-62.976zM328.704 538.56c0-8.832 7.168-16 16-16h283.968a16 16 0 0 1 0 32H344.704a16.064 16.064 0 0 1-16-16zM690.688 554.56a16 16 0 0 1 0-32h36.032a16 16 0 0 1 0 32h-36.032zM328.704 410.88c0-8.832 7.168-16 16-16h381.952a16 16 0 0 1 0 32H344.704a16 16 0 0 1-16-16zM328.704 283.264c0-8.768 7.168-16 16-16h381.952a16 16 0 1 1 0 32H344.704a16 16 0 0 1-16-16zM392.448 754.432c0-12.288-10.112-22.4-22.4-22.4h-0.512a22.528 22.528 0 0 0-22.4 22.4V821.248c0 12.288 10.112 22.4 22.4 22.4h0.512c12.288 0 22.4-10.112 22.4-22.4v-66.816zM715.136 754.432c0-12.288-10.112-22.4-22.4-22.4h-0.512a22.528 22.528 0 0 0-22.464 22.4V821.248c0 12.288 10.048 22.4 22.464 22.4h0.512c12.224 0 22.4-10.112 22.4-22.4v-66.816z"  horiz-adv-x="1024" />

    
    <glyph glyph-name="qianbao1" unicode="&#59036;" d="M69.12-73.728C30.72-73.728 0-42.496 0-4.608V651.776c0 29.696 18.944 55.808 46.592 65.536L696.832 892.416c7.168 2.56 14.848 3.584 22.528 3.584C757.76 896 788.48 864.768 788.48 826.88v-610.304c0-29.696-18.944-55.808-46.592-65.536l-650.24-221.184c-7.68-2.048-15.36-3.584-22.528-3.584z m650.24 930.816c-3.072 0-6.656-0.512-9.728-1.536l-650.24-175.104c-12.288-4.096-20.48-15.872-20.48-28.672v-656.384c0-19.968 20.48-35.328 39.936-28.672l650.24 221.184c12.288 4.096 20.48 15.872 20.48 28.672V826.88c0 16.896-13.312 30.208-30.208 30.208zM986.112-60.928H37.888c-10.24 0-18.432 8.192-18.432 18.432V681.984c0 10.24 8.192 18.432 18.432 18.432h947.712c10.24 0 18.432-8.192 18.432-18.432v-724.48c0.512-10.24-7.68-18.432-17.92-18.432zM948.224-80.384H75.776c-41.984 0-75.776 33.792-75.776 75.776V644.096C0 686.08 33.792 719.872 75.776 719.872h872.448c41.984 0 75.776-33.792 75.776-75.776v-648.704c0-41.984-33.792-75.776-75.776-75.776zM75.776 680.96c-20.48 0-36.864-16.384-36.864-36.864v-648.704c0-20.48 16.384-36.864 36.864-36.864h872.448c20.48 0 36.864 16.384 36.864 36.864V644.096c0 20.48-16.384 36.864-36.864 36.864H75.776zM713.728 546.304h-82.944L512 371.712 393.728 546.304H310.784l133.632-197.12H342.528v-56.832h130.048v-58.368H342.528v-55.296h130.048v-106.496h78.336v106.496h131.072v55.296h-131.072v58.368h131.072v56.832h-102.4z"  horiz-adv-x="1024" />

    
    <glyph glyph-name="qianbao2" unicode="&#58890;" d="M953.27232 512.41984H933.7856V691.83488c0 77.28128-62.88384 140.16512-140.16512 140.16512H147.34336C70.06208 832 7.17824 769.1264 7.17824 691.83488v-646.28736c0-77.28128 62.8736-140.16512 140.16512-140.16512h646.28736c77.28128 0 140.16512 62.88384 140.16512 140.16512V224.9728h19.47648a63.62112 63.62112 0 0 1 63.54944 63.54944V448.8704a63.62112 63.62112 0 0 1-63.54944 63.54944zM892.8256 45.54752c0-54.70208-44.50304-99.20512-99.20512-99.20512H147.34336c-54.70208 0-99.20512 44.50304-99.20512 99.20512V691.83488c0 54.70208 44.50304 99.20512 99.20512 99.20512h646.28736c54.70208 0 99.20512-44.50304 99.20512-99.20512v-179.41504H478.95552a63.62112 63.62112 0 0 1-63.54944-63.54944v-160.34816a63.62112 63.62112 0 0 1 63.54944-63.54944H892.8256v-179.42528z m83.03616 242.97472a22.60992 22.60992 0 0 0-22.58944-22.58944h-474.3168a22.60992 22.60992 0 0 0-22.58944 22.58944V448.8704c0 12.45184 10.1376 22.58944 22.58944 22.58944h474.3168c12.46208 0 22.58944-10.1376 22.58944-22.58944v-160.34816zM580.18816 435.968a67.34848 67.34848 0 0 1-67.26656-67.26656c0-37.09952 30.17728-67.2768 67.26656-67.2768s67.26656 30.17728 67.26656 67.2768c0.01024 37.08928-30.17728 67.26656-67.26656 67.26656z m0-93.58336a26.33728 26.33728 0 0 0-26.30656 26.3168c0 14.51008 11.79648 26.30656 26.30656 26.30656s26.30656-11.80672 26.30656-26.30656a26.33728 26.33728 0 0 0-26.30656-26.3168z"  horiz-adv-x="1024" />

    
    <glyph glyph-name="zhanghu" unicode="&#58895;" d="M597.156 378.798c36.639 26.501 60.6 69.489 60.6 118.057 0 80.374-65.382 145.756-145.756 145.756s-145.756-65.382-145.756-145.756c0-48.568 23.972-91.546 60.611-118.057-113.152-36.137-195.338-142.254-195.338-267.233h40.96c0 132.076 107.459 239.534 239.534 239.534s239.534-107.459 239.534-239.534h40.96c-0.010 124.989-82.196 231.096-195.348 267.233zM407.204 496.855c0 57.784 47.012 104.796 104.796 104.796s104.796-47.012 104.796-104.796-47.002-104.796-104.786-104.796-104.806 47.012-104.806 104.796zM512 896c-282.767 0-512-229.233-512-512s229.233-512 512-512 512 229.233 512 512-229.222 512-512 512zM512-87.040c-259.738 0-471.040 211.313-471.040 471.040 0 259.738 211.302 471.040 471.040 471.040s471.040-211.302 471.040-471.040c0-259.727-211.302-471.040-471.040-471.040z"  horiz-adv-x="1024" />

    
    <glyph glyph-name="yincangxiangqing" unicode="&#58899;" d="M13.888 339.904L511.616 837.568l498.496-498.496-45.248-45.184-453.248 453.184-452.48-452.544zM13.888-23.616l497.728 497.728 498.496-498.496-45.248-45.248-453.248 453.248-452.48-452.48z"  horiz-adv-x="1024" />

    
    <glyph glyph-name="tianjia-xue" unicode="&#58935;" d="M516.032 829.504c-246.741-0.291-446.685-200.235-446.976-446.948-0-246.556 200.512-447.004 446.976-447.004s446.976 200.512 446.976 446.976c-0.291 246.741-200.235 446.685-446.948 446.976zM516.032-0.512c-211.2 0-382.976 171.84-382.976 382.976s171.84 382.976 382.976 382.976 382.976-171.84 382.976-382.976-171.84-382.976-382.976-382.976zM700.032 414.528h-152v152c0 17.673-14.327 32-32 32s-32-14.327-32-32v-152h-152c-17.673 0-32-14.327-32-32s14.327-32 32-32h152v-152c0-17.673 14.327-32 32-32 17.673 0 32 14.327 32 32v152h152c17.673 0 32 14.327 32 32s-14.327 32-32 32z"  horiz-adv-x="1024" />

    
    <glyph glyph-name="liulanqi" unicode="&#58961;" d="M848.818342 529.382716c12.641975-36.119929 19.865961-75.851852 19.865961-117.389771 0-198.659612-162.539683-361.199295-361.199294-361.199294s-361.199295 162.539683-361.199295 361.199294 162.539683 361.199295 361.199295 361.199295c117.389771 0 222.137566-55.985891 287.153439-142.673721M507.485009 38.151675c-205.883598 0-373.84127 167.957672-373.84127 373.84127 0 205.883598 167.957672 373.84127 373.84127 373.84127 117.389771 0 225.749559-54.179894 296.183421-146.285714 3.611993-5.417989 3.611993-12.641975-1.805996-16.253968-5.417989-3.611993-12.641975-3.611993-16.253968 1.805996-66.821869 86.687831-167.957672 137.255732-278.123457 137.255732-193.241623 0-348.557319-157.121693-348.557319-348.557319S316.049383 65.241623 507.485009 65.241623s348.557319 157.121693 348.557319 348.557319c0 39.731922-7.223986 77.657848-18.059965 113.777778-1.805996 5.417989 1.805996 12.641975 7.223986 14.447971 5.417989 1.805996 12.641975-1.805996 14.447972-7.223986 12.641975-39.731922 19.865961-79.463845 19.865961-121.001763 0-207.689594-167.957672-375.647266-372.035273-375.647267zM251.03351 191.661376c-101.135802 0-173.375661 25.283951-189.62963 74.045855-9.029982 34.313933 5.417989 74.045855 46.955908 117.389771 5.417989 5.417989 12.641975 5.417989 16.253969 0 5.417989-5.417989 5.417989-12.641975 0-16.253968-23.477954-25.283951-50.567901-61.40388-39.731923-92.105821 21.671958-68.627866 218.525573-84.881834 476.783069-1.805996C819.922399 356.007055 969.820106 484.232804 948.148148 552.86067c-7.223986 25.283951-37.925926 37.925926-59.597883 45.149912-7.223986 1.805996-10.835979 9.029982-7.223986 14.447972 1.805996 7.223986 9.029982 10.835979 14.447971 7.223986 41.537919-12.641975 66.821869-32.507937 75.851852-61.40388 28.895944-92.10582-146.285714-227.555556-400.931217-308.825397C451.499118 211.527337 339.527337 191.661376 251.03351 191.661376zM612.232804 276.54321m-48.761905 0a48.761905 48.761905 0 1 1 97.52381 0 48.761905 48.761905 0 1 1-97.52381 0ZM612.232804 220.557319c-30.70194 0-55.985891 25.283951-55.98589 55.985891 0 30.70194 25.283951 55.985891 55.98589 55.985891s55.985891-25.283951 55.985891-55.985891c0-30.70194-25.283951-55.985891-55.985891-55.985891z m0 97.52381c-23.477954 0-41.537919-18.059965-41.537919-41.537919 0-23.477954 18.059965-41.537919 41.537919-41.537919s41.537919 18.059965 41.537919 41.537919c0 23.477954-18.059965 41.537919-41.537919 41.537919zM845.206349 532.994709c-3.611993 0-5.417989 1.805996-7.223986 5.417989-7.223986 21.671958-5.417989 41.537919 3.611993 55.985891 12.641975 19.865961 34.313933 23.477954 36.11993 23.477954 3.611993 0 7.223986-1.805996 7.223986-5.417989 0-3.611993-1.805996-7.223986-5.41799-7.223986 0 0-18.059965-3.611993-27.089947-18.059965-7.223986-10.835979-7.223986-25.283951-1.805996-45.149912 1.805996-3.611993-1.805996-7.223986-5.41799-9.029982z"  horiz-adv-x="1024" />

    
    <glyph glyph-name="add1" unicode="&#58985;" d="M896 448h-320v320c0 35.2-28.8 64-64 64s-64-28.8-64-64v-320h-320c-35.2 0-64-28.8-64-64s28.8-64 64-64h320v-320c0-35.2 28.8-64 64-64s64 28.8 64 64v320h320c35.2 0 64 28.8 64 64s-28.8 64-64 64z"  horiz-adv-x="1024" />

    
    <glyph glyph-name="set" unicode="&#58887;" d="M467-39c-30.3 0-55 24.7-55 55v37.2l-16.6 5.9c-10.4 3.7-20.7 8-30.7 12.7l-15.9 7.5-26.4-26.4c-10.3-10.3-24.1-16-38.9-16s-28.6 5.7-38.9 16l-63.6 63.6c-10.3 10.3-16 24.1-16 38.9s5.7 28.6 16 38.9l26.4 26.4-7.5 15.9c-4.7 10-9 20.3-12.7 30.7l-5.9 16.6h-37.3c-30.3 0-55 24.7-55 55v90c0 30.3 24.7 55 55 55h37.2l5.9 16.6c3.7 10.4 8 20.7 12.7 30.7l7.5 15.9-26.4 26.4c-10.3 10.3-16 24.1-16 38.9s5.7 28.6 16 38.9l63.6 63.6c10.3 10.3 24.1 16 38.9 16s28.6-5.7 38.9-16l26.4-26.4 15.9 7.5c10 4.7 20.3 9 30.7 12.7l16.6 5.9v37.4c0 30.3 24.7 55 55 55h90c30.3 0 55-24.7 55-55v-37.2l16.6-5.9c10.4-3.7 20.7-8 30.7-12.7l15.9-7.5 26.4 26.4c10.3 10.3 24.1 16 38.9 16s28.6-5.7 38.9-16l63.6-63.6c10.3-10.3 16-24.1 16-38.9s-5.7-28.6-16-38.9l-26.4-26.4 7.5-15.9c4.7-10 9-20.3 12.7-30.7l5.9-16.6h37.4c30.3 0 55-24.7 55-55v-90c0-30.3-24.7-55-55-55h-37.2l-5.9-16.6c-3.7-10.4-8-20.7-12.7-30.7l-7.5-15.9 26.4-26.4c10.3-10.3 16-24.1 16-38.9s-5.7-28.6-16-38.9l-63.6-63.6c-10.3-10.3-24.1-16-38.9-16s-28.6 5.7-38.9 16l-26.4 26.4-15.9-7.5c-10-4.7-20.3-9-30.7-12.7l-16.6-5.9v-37.4c0-30.3-24.7-55-55-55h-90.1zM557 782c7.9 0 15.4-3.1 21.1-8.9 5.7-5.7 8.9-13.2 8.9-21.1v-54.9l33.1-11.9c9.6-3.5 19.2-7.4 28.4-11.8l31.8-15 38.8 38.8c5.6 5.6 13.1 8.7 21.2 8.7s15.6-3.1 21.2-8.7l63.6-63.6c5.6-5.6 8.7-13.1 8.7-21.2s-3.1-15.6-8.7-21.2l-38.8-38.8 15-31.8c4.4-9.2 8.3-18.8 11.8-28.4l11.9-33.1h55c7.9 0 15.4-3.1 21.1-8.9 5.7-5.7 8.9-13.2 8.9-21.1v-90c0-7.9-3.1-15.4-8.9-21.1-5.7-5.7-13.2-8.9-21.1-8.9h-54.9l-11.9-33.1c-3.5-9.6-7.4-19.2-11.8-28.4l-15-31.8 38.8-38.8c5.6-5.6 8.7-13.1 8.7-21.2s-3.1-15.6-8.7-21.2l-63.6-63.6c-5.6-5.6-13.1-8.7-21.2-8.7s-15.6 3.1-21.2 8.7l-38.8 38.8-31.8-15c-9.2-4.4-18.8-8.3-28.4-11.8l-33.2-12.2v-54.8c0-7.9-3.1-15.4-8.9-21.1-5.7-5.7-13.2-8.9-21.1-8.9h-90c-7.9 0-15.4 3.1-21.1 8.9-5.7 5.7-8.9 13.2-8.9 21.1v54.9l-33.1 11.9c-9.6 3.5-19.2 7.4-28.4 11.8l-31.8 15-38.8-38.8c-5.6-5.6-13.1-8.7-21.2-8.7s-15.6 3.1-21.2 8.7l-63.6 63.6c-5.6 5.6-8.7 13.1-8.7 21.2s3.1 15.6 8.7 21.2l38.8 38.8-15 31.8c-4.4 9.2-8.3 18.8-11.8 28.4l-12.1 33.2h-54.8c-7.9 0-15.4 3.1-21.1 8.9-5.7 5.7-8.9 13.2-8.9 21.1v90c0 7.9 3.1 15.4 8.9 21.1 5.7 5.7 13.2 8.9 21.1 8.9h54.9l11.9 33.1c3.5 9.6 7.4 19.2 11.8 28.4l15 31.8-38.8 38.8c-5.6 5.6-8.7 13.1-8.7 21.2s3.1 15.6 8.7 21.2l63.6 63.6c5.6 5.6 13.1 8.7 21.2 8.7s15.6-3.1 21.2-8.7l38.8-38.8 31.8 15c9.2 4.4 18.8 8.3 28.4 11.8l33.1 11.9v55c0 7.9 3.1 15.4 8.9 21.1 5.7 5.7 13.2 8.9 21.1 8.9h90.1M557 832h-90c-44 0-80-36-80-80v-19.7c-11.2-4-22.2-8.6-32.9-13.6l-13.9 13.9c-15.6 15.6-36.1 23.3-56.6 23.3s-41-7.8-56.6-23.3l-63.6-63.6c-31.1-31.1-31.1-82 0-113.1l13.9-13.9c-5.1-10.7-9.6-21.7-13.6-32.9h-19.7c-44 0-80-36-80-80v-90c0-44 36-80 80-80h19.7c4-11.2 8.6-22.2 13.6-32.9l-13.9-13.9c-31.1-31.1-31.1-82 0-113.1l63.6-63.6c15.6-15.6 36.1-23.3 56.6-23.3s41 7.8 56.6 23.3l13.9 13.9c10.7-5.1 21.7-9.6 32.9-13.6v-19.9c0-44 36-80 80-80h90c44 0 80 36 80 80v19.7c11.2 4 22.2 8.6 32.9 13.6l13.9-13.9c15.6-15.6 36.1-23.3 56.6-23.3s41 7.8 56.6 23.3l63.6 63.6c31.1 31.1 31.1 82 0 113.1l-13.9 13.9c5.1 10.7 9.6 21.7 13.6 32.9h19.7c44 0 80 36 80 80v90c0 44-36 80-80 80h-19.7c-4 11.2-8.6 22.2-13.6 32.9l13.9 13.9c31.1 31.1 31.1 82 0 113.1l-63.6 63.8c-15.6 15.6-36.1 23.3-56.6 23.3s-41-7.8-56.6-23.3l-13.9-13.9c-10.7 5.1-21.7 9.6-32.9 13.6v19.7c0 44-36 80-80 80zM307 360c0-113.218 91.782-205 205-205s205 91.782 205 205c0 113.218-91.782 205-205 205-113.218 0-205-91.782-205-205zM512 209c-96.5 0-175 78.5-175 175s78.5 175 175 175 175-78.5 175-175-78.5-175-175-175zM512 534c40.1 0 77.7-15.6 106.1-43.9 28.3-28.3 43.9-66 43.9-106.1s-15.6-77.7-43.9-106.1c-28.3-28.3-66-43.9-106.1-43.9s-77.7 15.6-106.1 43.9c-28.3 28.3-43.9 66-43.9 106.1s15.6 77.7 43.9 106.1 66 43.9 106.1 43.9M512 584c-110.5 0-200-89.5-200-200s89.5-200 200-200 200 89.5 200 200-89.5 200-200 200z"  horiz-adv-x="1024" />

    
    <glyph glyph-name="shouqi" unicode="&#59042;" d="M115.507 177.44c5.705-5.735 13.603-9.284 22.331-9.284s16.625 3.549 22.33 9.283l349.648 349.648 349.647-349.647c5.705-5.735 13.603-9.284 22.331-9.284s16.625 3.549 22.33 9.283c5.737 5.706 9.285 13.604 9.285 22.333 0 8.726-3.549 16.625-9.283 22.33l-371.979 371.979c-12.379 12.379-32.283 12.379-44.661 0l-371.978-371.978c-12.379-12.379-12.379-32.283 0-44.661z"  horiz-adv-x="1024" />

    
    <glyph glyph-name="password" unicode="&#59110;" d="M762 491.5h-35.8v73.7c0 127.2-92.7 230.7-206.6 230.7h-16.6c-113.9 0-206.6-103.5-206.6-230.7v-73.7h-35.8v73.7c0 147 108.7 266.6 242.4 266.6h16.6c133.7 0 242.4-119.6 242.4-266.6v-73.7zM797.8-63.6h-573c-49.4 0-89.5 40.2-89.5 89.5v394c0 49.4 40.2 89.5 89.5 89.5h573c49.4 0 89.5-40.2 89.5-89.5v-393.9c0.1-49.4-40.1-89.6-89.5-89.6zM224.8 473.6c-29.6 0-53.7-24.1-53.7-53.7v-393.9c0-29.6 24.1-53.7 53.7-53.7h573c29.6 0 53.7 24.1 53.7 53.7v393.9c0 29.6-24.1 53.7-53.7 53.7h-573zM511.3 61.8h-0.3c-9.9 0.2-17.8 8.3-17.6 18.2 0.7 41.4 1.2 86.6 0.9 108.7-49.1 9-90.4 55.4-90.4 105.9 0 59.2 48.2 107.4 107.4 107.4s107.4-48.2 107.4-107.4c0-33.8-16.2-66-43.3-86.2-8-5.9-19.2-4.3-25.1 3.7-5.9 7.9-4.3 19.1 3.7 25.1 18.3 13.7 28.9 34.6 28.9 57.5 0 39.5-32.1 71.6-71.6 71.6s-71.6-32.1-71.6-71.6c0-36.8 34.8-71.6 71.6-71.6 4.8 0 9.5-2 12.8-5.4 6.7-6.8 7.4-7.5 5.1-138.2-0.1-9.9-8.1-17.7-17.9-17.7z"  horiz-adv-x="1024" />

    
    <glyph glyph-name="web" unicode="&#59113;" d="M292.6 204.1c-98.3 0-173.6 13-207.4 38.2-13.1 9.7-20.6 21.4-22.4 34.6-2.8 20.3 8.4 40.8 33.2 60.9 2.9 2.3 46.1 26.3 53.1 27.9 9.8 2.1 19.3-3.9 21.5-13.6 2.1-9.1-3.1-18.1-11.7-21-5.9-2.6-37.1-19.4-41.3-22.1-12.4-10.1-20-20.6-19.1-27.2 0.6-4.1 4.8-8.1 8.3-10.7 42-31.3 199.1-45.3 418-11.6 272.5 42.1 407.3 120.5 403.2 150.8-1.2 8.7-18.9 27.8-63.7 27.8-10 0-18 8.1-18 18s8.1 18 18 18c62.7 0 95.5-30.6 99.4-58.9 12.3-89.4-252.4-163.4-433.3-191.3-86.6-13.3-168.1-19.8-237.8-19.8zM260.4 423.6c-0.6 0-1.1 0.1-1.7 0.2-4.9 0.9-8.1 5.6-7.2 10.5 3.2 16.9 8.1 33.6 14.6 49.6 1.9 4.6 7.1 6.8 11.7 5 4.6-1.9 6.8-7.1 5-11.7-6-14.9-10.6-30.5-13.6-46.2-0.8-4.4-4.6-7.4-8.8-7.4zM312.9 536.7c-2 0-4 0.7-5.7 2-3.9 3.1-4.5 8.8-1.3 12.7 39.6 49 95.3 82.5 156.8 94.3 4.9 0.9 9.6-2.3 10.5-7.2 0.9-4.9-2.3-9.6-7.1-10.5-57.4-11-109.3-42.2-146.2-87.9-1.8-2.2-4.4-3.4-7-3.4zM513.1 3.8c-209.7 0-380.4 170.6-380.4 380.4 0 10.2 0.4 20.5 1.2 30.5 1.1 13.7 2.9 27.5 5.5 41.1 34.1 178.9 191.2 308.8 373.6 308.8 139.9 0 268.1-76.5 334.8-199.6 4.7-8.7 1.5-19.7-7.3-24.4-8.7-4.7-19.7-1.5-24.4 7.3-60.3 111.5-176.5 180.7-303.1 180.7-165-0.1-307.3-117.6-338.1-279.6-2.3-12.2-4-24.7-5-37.2-0.7-9.1-1.1-18.4-1.1-27.7 0-189.9 154.5-344.3 344.3-344.3s344.3 154.5 344.3 344.3c0 22.9-2.3 45.8-6.7 68.1-2 9.7 4.4 19.2 14.1 21.2s19.2-4.4 21.2-14.1c4.9-24.6 7.4-49.9 7.4-75.2 0.1-209.7-170.5-380.3-380.3-380.3z"  horiz-adv-x="1024" />

    
    <glyph glyph-name="fanhui1" unicode="&#58885;" d="M711.1-32.3c-13.2 0-26.3 5-36.4 15.2L297.8 363.1c-20.1 20.2-20.1 53.1 0 73.3L674.7 816.8c20.1 20.3 52.6 20.3 72.7 0 20.1-20.2 20.1-53.1 0-73.3L406.9 399.8l340.5-343.6c20.1-20.3 20.1-53.1 0-73.3-10-10.1-23.2-15.2-36.3-15.2z"  horiz-adv-x="1024" />

    
    <glyph glyph-name="shuaxin" unicode="&#58955;" d="M928 416a32 32 0 0 1-32-32 384 384 0 1 0-384 384c58.73 0 126.82-21.15 191.7-59.54 34.1-20.17 65.43-44 90.59-68.46H736a32 32 0 0 1 0-64h128a32 32 0 0 1 32 32V736a32 32 0 0 1-64 0v-43.72a559.52 559.52 0 0 1-95.7 71.26 531.85 531.85 0 0 1-107.57 48.92C588.41 825.43 549.14 832 512 832a448.11 448.11 0 0 1-174.39-860.78A447.88 447.88 0 0 1 960 384a32 32 0 0 1-32 32z"  horiz-adv-x="1024" />

    
    <glyph glyph-name="kefu" unicode="&#58922;" d="M959.8-39.9c-2.6 53.9-14.2 106.2-34.6 155.8-22.6 54.9-54.9 104.2-96 146.5s-89 75.6-142.4 98.8c-19.9 8.7-40.3 15.8-61 21.4 18.8 10.7 36.3 24.2 51.9 40.3 9.3 9.6 17.7 19.8 25.2 30.7 23.9 5.4 45.9 13.2 65 23.1 44.3 23.1 68.8 55.9 68.8 92.2 0 18.4-6.5 45.7-37.4 71.6-16 13.4-36.7 24.7-60.8 33.4-2.3 0.8-4.6 1.2-6.9 1.3-11.5 32.1-29.7 61.6-53.9 86.5-44 45.2-102.5 70.2-164.7 70.2S392.3 807 348.3 761.7c-44-45.2-68.2-105.4-68.2-169.4s24.2-124.2 68.2-169.4c15.5-16 32.9-29.4 51.5-40.1-21-5.6-41.7-12.8-61.9-21.6-53.4-23.2-101.3-56.4-142.4-98.8-41.1-42.3-73.4-91.6-96-146.5-20.4-49.6-32-101.9-34.6-155.8-0.6-12.8 9.2-23.6 21.7-23.6h0.1c11.6 0 21.1 9.4 21.7 21.4 10.9 219.5 187.9 394.7 403.9 394.7 216 0 393.1-175.2 403.9-394.7 0.6-12 10.1-21.4 21.7-21.4h0.1c12.5-0.1 22.4 10.7 21.8 23.6zM796.3 568.8c0-17.5-17-36.8-45.6-51.6-6.1-3.2-12.7-6.1-19.5-8.8 9.6 26.5 14.6 54.8 14.6 83.9 0 10.6-0.7 21.2-2 31.6 32.2-15.3 52.5-35.8 52.5-55.1z m-472.6 23.4C323.7 699.6 408.6 787 513 787s189.3-87.4 189.3-194.7c0-35.9-9.5-69.5-26-98.4-17.5-2.8-36-4.3-55-4.3-23.3 0-46 2.2-67.3 6.6-3.3 35.2-32.3 62.8-67.3 62.8-37.3 0-67.6-31.2-67.6-69.6 0-38.4 30.3-69.6 67.6-69.6 24.2 0 45.5 13.2 57.4 32.9 24.4-5.2 50.6-7.9 77.2-7.9 5.2 0 10.3 0.1 15.4 0.3-33.2-29.6-76.5-47.5-123.8-47.5-104.3-0.1-189.2 87.2-189.2 194.6z m187.1-103c0-13.7-10.8-24.8-24.1-24.8s-24.1 11.1-24.1 24.8c0 13.7 10.8 24.8 24.1 24.8s24.1-11.1 24.1-24.8z"  horiz-adv-x="1024" />

    
    <glyph glyph-name="lvzhou_gengduo_xiangqing" unicode="&#58920;" d="M965.75374222 731.02222222H292.06983111c-12.1856 0-22.41649778-10.87715555-22.41649778-23.06616889v-41.37415111C269.65333333 654.39288889 279.88423111 645.68888889 292.06983111 645.68888889h673.68391111c12.18446222 0 21.83736889 8.68807111 21.83736889 20.88049778v41.37415111C987.59111111 720.13368889 977.93820445 731.02222222 965.75374222 731.02222222zM965.75374222 407.89333333H292.06983111c-12.1856 0-22.41649778-9.08401778-22.41649778-21.27303111v-41.37528889c0-12.18673778 10.23089778-22.68501333 22.41649778-22.68501333h673.68391111c12.18446222 0 21.83736889 10.48234667 21.83736889 22.67477333v41.37301334c0 12.18901333-9.65290667 21.28554667-21.83736889 21.28554666zM965.75374222 88.17777778000004H292.06983111c-12.1856 0-22.41649778-10.70421333-22.41649778-22.89550223v-41.3741511c0-12.18446222 10.23089778-21.06368 22.41649778-21.06368h673.68391111c12.18446222 0 21.83736889 8.86215111 21.83736889 21.05344v41.37301333c0 12.19128889-9.65290667 22.90688-21.83736889 22.90688zM192.77824 731.02222222H57.62389333h137.91232-135.16003555C48.19057778 731.02222222 38.68444445 720.14506667 38.68444445 707.95605333v-41.37415111C38.68444445 654.39288889 48.19057778 645.68888889 60.37617778 645.68888889h135.16003555-137.91232 135.15434667c12.1856 0 22.26176 8.68807111 22.26176 20.88049778v41.37415111C215.04 720.13368889 204.96384 731.02222222 192.77824 731.02222222zM192.77824 407.89333333H57.62389333h137.91232-135.16003555C48.19057778 407.89333333 38.68444445 397.43032889 38.68444445 385.24017778v-41.37642667c0-12.1856 9.50613333-21.30488889 21.69173333-21.30488889h135.16003555-137.91232 135.15434667c12.1856 0 22.26176 9.10222222 22.26176 21.29464889V385.2288c0 12.18901333-10.07616 22.66453333-22.26176 22.66453333zM192.77824 88.17777778000004H57.62389333h137.91232-135.16003555C48.19057778 88.17777778000004 38.68444445 77.47356445000003 38.68444445 65.28227555000001v-41.3741511C38.68444445 11.723662220000051 48.19057778 2.844444449999969 60.37617778 2.844444449999969h135.16003555-137.91232 135.15434667c12.1856 0 22.26176 8.86215111 22.26176 21.05344v41.37301333c0 12.19128889-10.07616 22.90688-22.26176 22.90688z"  horiz-adv-x="1024" />

    
    <glyph glyph-name="icon-test" unicode="&#58916;" d="M637.669 679.857H386.342c-39.458 0-71.56-32.095-71.56-71.546V159.69c0-39.451 32.102-71.548 71.56-71.548h251.327c39.452 0 71.549 32.097 71.549 71.548V608.312c0 39.45-32.097 71.545-71.549 71.545z m-251.327-30h251.327c22.91 0 41.549-18.637 41.549-41.546v-17.282H344.782v17.282c0 22.909 18.644 41.546 41.56 41.546z m292.876-78.615v-340.385H344.782V571.242h334.436z m-41.549-453.099H386.342c-22.916 0-41.56 18.639-41.56 41.548v51.384h334.436v-51.384c0-22.91-18.639-41.548-41.549-41.548zM483.73 607.991h56.549c4.699 0 8.476 3.809 8.476 8.489a8.468 8.468 0 0 1-8.476 8.475H483.73c-4.688 0-8.485-3.801-8.485-8.475 0-4.68 3.798-8.489 8.485-8.489zM511.995 194.927c-17.167 0-31.101-13.923-31.101-31.112 0-17.179 13.934-31.102 31.101-31.102 17.178 0 31.112 13.923 31.112 31.102-0.001 17.189-13.934 31.112-31.112 31.112zM512.013 802.826C280.69 802.826 93.182 615.305 93.182 384c0-231.307 187.508-418.826 418.831-418.826 231.315 0 418.806 187.52 418.806 418.826-0.001 231.305-187.491 418.826-418.806 418.826z m-0.001-819.795c-221.459 0-400.973 179.524-400.973 400.969 0 221.442 179.514 400.969 400.973 400.969 221.453 0 400.949-179.526 400.949-400.969 0-221.444-179.496-400.969-400.949-400.969z"  horiz-adv-x="1024" />

    
    <glyph glyph-name="qiandai" unicode="&#58889;" d="M399.1 627.3S97.8 458.6 216.3 183.9c87.6-203 439.1-171.1 439.1-171.1 11.2 1.1 342.2 17.8 285.5 328.3C903.1 548 725.8 626.4 706.7 630c-19.1 3.5-307.6-2.7-307.6-2.7zM600.6 0.7c-105.5 0-325 19.9-393.7 179.2C86.3 459.7 391 634.4 394.1 636.1c1.4 0.8 3.1 1.3 4.7 1.3 29.6 0.6 290.2 6.1 309.6 2.5 24.3-4.5 204.1-87.9 242.3-297 16.5-90.4 2.4-165.4-42-223-74.2-96.3-210.9-113.9-251.1-117-3.6-0.3-25.1-2.2-57-2.2zM401.9 617.2c-12.5-7.4-78.1-48.2-131.1-115.4-77.5-98.3-92.7-203.9-45.3-313.9 83.7-194.1 425.5-165.3 428.9-165 39.9 3.1 169.3 19.7 238.4 109.4 40.7 52.8 53.5 122.5 38.1 207C894.7 537.4 727.4 615.9 704.8 620c-13.3 2.5-187.4-0.3-302.9-2.8zM355.8 599.6s5.1-51.9 90.5-90.4c85.4-38.5 223.3-32.4 283.2 40.2 59.8 72.6 35.2 81.7 35.2 81.7l-408.9-31.5zM562.9 475.9c-43.1 0-86 8.4-120.8 24.1-89.7 40.4-96.2 96.3-96.4 98.6-0.3 2.7 0.6 5.4 2.3 7.5 1.7 2.1 4.3 3.4 7 3.6l408.8 31.5c1.4 0.1 2.9-0.1 4.3-0.6 3.9-1.4 8.8-5.6 10.7-12.9 4.7-17.4-8.9-45.1-41.6-84.8-38.1-46.2-106.4-67-174.3-67zM368.7 590.4c6.2-15.7 25-46.5 81.7-72.1 82.9-37.3 214.6-31.1 271.2 37.4 34.2 41.5 37.9 59.1 37.9 64.8l-390.8-30.1z m-12.9 9.2h0.3-0.3zM238.1 263.5c-30 191 116.6 331.9 122.9 337.8l25.9-27.4c-1.4-1.3-138.4-133.5-111.5-304.6l-37.3-5.8zM238.1 253.4c-4.9 0-9.2 3.6-10 8.5-30.9 197.1 119.6 340.7 126 346.8 4.1 3.8 10.4 3.6 14.3-0.4l25.9-27.4c3.8-4 3.6-10.4-0.4-14.3-1.3-1.3-134.4-130.8-108.5-295.7 0.4-2.6-0.2-5.4-1.8-7.5-1.6-2.2-4-3.6-6.6-4l-37.3-5.8c-0.6-0.1-1.1-0.2-1.6-0.2z m122.7 333.5c-29.1-30.2-134.2-151.7-114.1-311.8l17.4 2.7C245.9 425.9 345.2 544.2 372.9 574l-12.1 12.9zM305.9 227.9c-2-26-24.7-45.5-50.7-43.5-26 2-45.5 24.7-43.5 50.6 2 26 24.6 45.5 50.6 43.5 26.1-1.9 45.6-24.6 43.6-50.6zM258.8 174.1c-1.4 0-2.9 0.1-4.4 0.2-15.3 1.2-29.2 8.2-39.1 19.8-10 11.6-14.8 26.4-13.7 41.7 1.2 15.3 8.2 29.2 19.8 39.2 11.6 10 26.4 14.8 41.7 13.7 15.3-1.2 29.2-8.2 39.2-19.8 10-11.6 14.8-26.4 13.7-41.7-2.3-30.1-27.5-53.1-57.2-53.1z m-0.1 94.5c-8.9 0-17.3-3.1-24.1-9-7.5-6.4-12.1-15.5-12.8-25.4-0.8-9.9 2.4-19.5 8.8-27 6.5-7.5 15.4-12.1 25.3-12.8 20.4-1.8 38.3 13.8 39.8 34.2 0.8 9.9-2.4 19.5-8.8 27-6.5 7.5-15.5 12.1-25.4 12.8-0.9 0.1-1.8 0.2-2.8 0.2zM114.5 364.9c57.8 184.5 251.7 245.8 259.9 248.3l11.1-36.1c-1.8-0.6-183.3-58.3-235-223.5l-36 11.3zM150.5 343.4c-1 0-2 0.2-3 0.5l-36 11.3c-5.3 1.7-8.3 7.3-6.6 12.7C164.4 558 363 620.3 371.4 622.8c5.3 1.6 10.9-1.4 12.6-6.7l11.1-36.1c1.6-5.3-1.4-11-6.7-12.6-1.8-0.6-178.4-57.5-228.4-216.9-0.8-2.6-2.6-4.7-5-5.9-1.3-0.8-2.9-1.2-4.5-1.2z m-23.2 28l16.8-5.3c49.5 141 190.9 202.8 229 217.1l-5.2 16.9c-39.7-14-187.7-76.4-240.6-228.7zM159.4 302.8c-13.3-22.4-42.3-29.8-64.7-16.6-22.4 13.3-29.8 42.3-16.5 64.7 13.3 22.4 42.3 29.8 64.7 16.5 22.4-13.1 29.8-42.1 16.5-64.6zM118.6 269.6c-9.9 0-20 2.6-29.1 8-27.2 16.2-36.2 51.4-20.1 78.6 16.1 27.2 51.3 36.2 78.6 20.1 27.2-16.1 36.2-51.4 20.1-78.6-10.7-18-29.8-28.1-49.5-28.1z m0.3 94.4c-12.7 0-25.1-6.5-32-18.2-10.4-17.6-4.6-40.4 13-50.9 17.7-10.4 40.5-4.6 50.9 13 10.4 17.6 4.6 40.4-13 50.9-6 3.6-12.5 5.2-18.9 5.2z m40.5-61.2h0.3-0.3zM804 735.7c104.5 40-64.5-136.1-64.5-136.1-222-150.3-377.4 13.4-377.4 13.4l-89.6 117.8s308.6-80.5 531.5 4.9zM552.9 526.8c-120.9 0-197 78.1-198.1 79.2l-90.3 118.6c-2.6 3.4-2.8 8.1-0.4 11.7 2.4 3.6 6.8 5.3 11 4.2 3.1-0.8 308-78.7 525.3 4.5 16.2 6.2 36.1 11.7 44.8-1.4 15.7-23.7-44.8-95.2-98.4-151.1-72.2-48.9-137.9-65.7-193.9-65.7zM297.6 714.6l72.6-95.4c5.4-5.6 151.8-154.7 363.7-11.2 50.1 52.5 92.4 108 94.1 123.5h-0.1c-2.6 0-8.5-0.8-20.3-5.3-187-71.6-428.8-29.3-510-11.6zM804 735.7h0.3-0.3zM269 757.3c11 26 79.1 46.2 125.6 32.3 107.8-32.3 104.1 1.4 125.1 13.3 21 12 71 13.3 140.6-16.7 67.2-28.9 116.7 7.8 130.3 7.5 106.8-2.4 46-77.9 21.9-100.7-72.1-68-148.3-22.4-148.3-22.4s-37.3 31.7-82.1 3.6c-47.6-29.8-89.6-65.2-141.7-19.4-42.9 37.8-64.9 19.4-98.7 27.5-17.4 4.3-97 17.8-72.7 75zM491.2 622.7c-18.2 0-37.3 6.8-57.6 24.7-26.2 23.1-42.7 22.8-61.9 22.6-10-0.2-20.4-0.3-32.4 2.6l-3.8 0.9c-18.3 4.1-61.2 13.6-76.1 42.5-6.9 13.4-6.8 28.6 0.3 45.3 13.7 32.2 88.4 52.8 137.8 38 79.6-23.9 92.5-10.5 103.8 1.2 3.8 3.9 7.7 8 13.3 11.2 22.2 12.7 74.7 16.1 149.6-16.2 47.1-20.3 84.5-5.8 106.8 2.8 8.8 3.4 13.6 5.1 19.8 5.5 38-0.9 61.1-11.1 68.5-30.4 13.7-35.7-34.4-82.5-39.9-87.7-76.9-72.4-159.7-24.2-160.5-23.7-2.6 2-33.8 27.4-71.6 3.7l-13.3-8.5c-26.5-17-53.6-34.5-82.8-34.5z m-113.5 67.6c18.9 0 40.5-2.3 69.3-27.7 41.4-36.5 74.4-15.2 116.1 11.7l13.5 8.6c40.5 25.4 79.2 8.1 94-4.5 1.5-0.7 69.3-39.7 134.9 22 17.1 16.1 41.7 48.2 34.9 65.8-4.1 10.6-21.8 16.8-50.1 17.4-1.6-0.1-7.4-2.3-12-4.1-23.5-9.1-67.4-26.1-122.1-2.5-72.8 31.3-116.9 25.5-131.6 17.2-3.1-1.8-5.7-4.5-8.8-7.7-17.9-18.6-39.6-31.8-124.2-6.5-44.1 13.2-105.4-7.8-113.4-26.5-4.7-11.1-5-20.3-0.9-28.2 10.5-20.5 48.3-28.9 62.5-32l4.1-0.9c9.6-2.3 18.3-2.3 27.4-2.1 2.2-0.1 4.3 0 6.4 0zM555.4 109.4c-5.6 0-10.1 4.5-10.1 10.1V168h-67.4c-5.6 0-10.1 4.5-10.1 10.1v34.5c0 5.6 4.5 10.1 10.1 10.1h67.4v3.9h-67.4c-5.6 0-10.1 4.5-10.1 10.1v34.5c0 5.6 4.5 10.1 10.1 10.1h44.3l-83.4 133c-1.9 3.1-2.1 7-0.3 10.3 1.8 3.2 5.2 5.2 8.8 5.2h84.3c4 0 7.6-2.3 9.2-5.9l30.5-67.4c9.7-21.3 14.7-32.6 19.6-43.5l1-2.3c3.8 8.3 50 113.2 50 113.2 1.6 3.7 5.3 6 9.3 6H734c3.7 0 7.1-2 8.8-5.2 1.8-3.2 1.7-7.1-0.3-10.3l-83.4-133h44.3c5.6 0 10.1-4.5 10.1-10.1v-34.5c0-5.6-4.5-10.1-10.1-10.1h-66.6v-3.9h66.6c5.6 0 10.1-4.5 10.1-10.1v-34.5c0-5.6-4.5-10.1-10.1-10.1h-66.6v-48.5c0-5.6-4.5-10.1-10.1-10.1h-71.3zM734 419.7h0.1m-0.1 0l-93.1-148.5h62.6v-34.5h-76.7v-24.1h76.7v-34.5h-76.7v-58.6h-71.4v58.6h-77.5v34.5h77.5v24.1h-77.5v34.5h62.6l-93.1 148.5h84.3l30.5-67.4c15.2-33.3 18.9-42.1 28.5-63.4h2.4c10 21.3 14.4 31.7 28.5 63.4l29.7 67.4H734m0.1 20.2h-82.8c-8 0-15.3-4.7-18.5-12.1l-29.7-67.4L595 342c-1-2.3-2-4.5-2.9-6.6-3 6.8-6.7 14.8-11.5 25.3L550.1 428c-3.3 7.2-10.5 11.9-18.4 11.9h-84.3c-7.4 0-14.1-4-17.7-10.4-3.6-6.4-3.3-14.3 0.6-20.5L504 291.4h-26.1c-11.2 0-20.2-9-20.2-20.2v-34.5c0-4.5 1.5-8.7 4-12-2.5-3.4-4-7.5-4-12v-34.5c0-11.2 9-20.2 20.2-20.2h57.3v-38.4c0-11.2 9-20.2 20.2-20.2h71.4c11.2 0 20.2 9 20.2 20.2V158h56.4c11.2 0 20.2 9 20.2 20.2v34.5c0 4.5-1.5 8.7-4 12 2.5 3.4 4 7.5 4 12v34.5c0 11.2-9 20.2-20.2 20.2h-26.1l73.1 116.5c2.4 3.3 3.8 7.4 3.8 11.8 0.1 11.1-8.9 20.2-20.1 20.2z m-0.1-40.4h0.1-0.1z"  horiz-adv-x="1024" />

    
    <glyph glyph-name="tongzhi1" unicode="&#58926;" d="M639.9 569v-16.2c35.5-5.5 68.1-22.1 94-48C766.2 472.5 784 429.6 784 384c0-45.6-17.8-88.5-50.1-120.8-25.9-25.9-58.5-42.4-94-48V199c90.5 13 160 90.9 160 185s-69.5 172-160 185zM723.8 680.8v-16.4c15-3.6 29.7-8.5 44-14.5 34.4-14.5 65.2-35.3 91.7-61.8s47.3-57.3 61.8-91.7C936.4 460.8 944 423 944 384c0-38.9-7.6-76.7-22.7-112.3-14.5-34.4-35.3-65.2-61.8-91.7s-57.3-47.3-91.7-61.8c-14.3-6.1-29-10.9-44-14.5v-16.4C859.1 118.3 960 239.4 960 384S859.1 649.8 723.8 680.8zM277.5 509.2h16v-250h-16zM277.5 509.2v-9.2h16v9.2h-16z m0-241.2v-8.8h16V268h-16zM616.4 437.6c-11 11.1-25.5 18.7-41.5 21.3V784l-297-240H64v-320h214l296.9-240V309.1c36.1 5.8 63.8 37.3 63.8 74.9 0 20.9-8.5 39.9-22.3 53.6z m-85.6-361.4L305.6 258.3l-12.1 9.8v-8.8h-16V268H108V500h169.5v9.2h16v-9.2l12.1 9.8 225.2 182.1v-615.7z m74.3 265.6c-8.4-8.4-18.9-14.1-30.2-16.4V442.7c11.3-2.3 21.8-7.9 30.2-16.4 11.4-11.3 17.6-26.4 17.6-42.3 0-15.9-6.3-30.9-17.6-42.2z"  horiz-adv-x="1024" />

    
    <glyph glyph-name="lvhanghuafei" unicode="&#58924;" d="M655.8 486.6L346.1 311.1c-12.9-7.3-29.4-2.7-36.6 10.2L217 484.6c-7.3 12.9-2.7 29.4 10.2 36.6l309.6 175.4c12.9 7.3 29.4 2.7 36.6-10.2L666 523.2c7.2-12.9 2.7-29.4-10.2-36.6zM333 300.6c-11.8 0-23.3 6.2-29.6 17.2l-92.5 163.3c-9.2 16.3-3.5 37.1 12.8 46.3l309.6 175.4c7.9 4.4 17 5.5 25.8 3.1s16-8.1 20.5-15.9l92.5-163.3c9.2-16.3 3.5-37.1-12.8-46.3L349.7 305.1c-5.3-3.1-11.1-4.5-16.7-4.5z m216.9 392.5c-3.4 0-6.7-0.9-9.6-2.6L230.7 515.1c-9.5-5.4-12.9-17.5-7.5-27l92.5-163.3c5.4-9.5 17.5-12.9 27-7.5l309.6 175.4c9.5 5.4 12.9 17.5 7.5 27l-92.5 163.3c-2.6 4.6-6.8 7.9-11.9 9.3-1.9 0.5-3.6 0.8-5.5 0.8zM334.7 528.3l-6.9 12.3L534 657.3c7.4 4.2 16.9 2 21.5-5.3l36.2-62.7-12.3-7-36 62.4c-0.4 0.7-1.5 0.9-2.4 0.4L334.7 528.3zM758.9 404L361.2 266.9c-14-4.8-29.4 2.7-34.2 16.7l-73.6 213.5c-4.8 14 2.7 29.4 16.7 34.2l397.7 137c14 4.8 29.4-2.7 34.2-16.7l73.5-213.4c4.8-14-2.6-29.4-16.6-34.2zM352.4 258.4c-5.1 0-10.2 1.2-14.9 3.5-8.1 4-14.3 10.8-17.2 19.4l-73.6 213.5c-6.1 17.7 3.4 37.1 21 43.2l397.7 137c17.7 6.1 37.1-3.4 43.2-21l73.6-213.5c2.9-8.6 2.4-17.8-1.6-25.9-4-8.1-10.8-14.3-19.4-17.2l-397.7-137c-3.6-1.4-7.3-2-11.1-2z m324.1 404.3c-2.2 0-4.3-0.3-6.4-1.1l-397.7-137c-10.3-3.6-15.8-14.9-12.3-25.2L333.7 285.9c1.7-5 5.3-9 10.1-11.3 4.8-2.3 10.2-2.7 15.1-1l397.7 137c10.3 3.6 15.8 14.9 12.3 25.2l-73.6 213.5c-1.7 5-5.3 9-10.1 11.3-2.9 1.5-5.8 2.1-8.7 2.1zM397.7 519.1l-4.6 13.3 259.6 89.3c8.8 3 18.4-1.3 21.9-10l28-79-13.3-4.8-27.9 78.7c-0.5 1.4-2.4 2.3-4.1 1.6l-259.6-89.1zM742.1 75H247.4c-22 0-40 18-40 40V494.7c0 22 18 40 40 40h494.7c22 0 40-18 40-40v-379.7c0-22-18-40-40-40zM782.1 480.2v34l-24.5 24.5h-522l-28.3-29.3V107.89999999999998l32-32.2h510.9l31.4 31.4V129.89999999999998H281.9c-11.9 0-21.6 9.6-21.6 21.6V458.6c0 11.9 9.6 21.6 21.6 21.6h500.2zM742.1 60.799999999999955H247.4c-29.8 0-54.2 24.3-54.2 54.2V494.7c0 29.8 24.3 54.2 54.2 54.2h494.7c29.8 0 54.2-24.3 54.2-54.2v-379.7c0-29.9-24.4-54.2-54.2-54.2zM247.4 520.6c-14.3 0-25.9-11.6-25.9-25.9v-379.7c0-14.3 11.6-25.9 25.9-25.9h494.7c14.3 0 25.9 11.6 25.9 25.9V494.7c0 14.3-11.6 25.9-25.9 25.9H247.4zM796.4 211.20000000000005H668.7c-38.8 0-70.5 31.8-70.5 70.5 0 38.8 31.8 70.5 70.5 70.5h118.4c5.2 0 9.4-4.2 9.4-9.4v-131.5h-0.1zM807.2 240.20000000000005H673.5c-38.8 0-70.5 31.8-70.5 70.5 0 38.8 31.8 70.5 70.5 70.5h133.7c5.2 0 9.4-4.2 9.4-9.4v-122.1c0.1-5.2-4.2-9.5-9.4-9.5zM771.9 381.20000000000005h44.8v-140.9h-44.8zM789 226.10000000000002H673.5c-46.6 0-84.7 37.9-84.7 84.6s37.9 84.7 84.7 84.7h115.6c23 0 41.7-18.8 41.7-41.7V267.9c-0.1-23.1-18.7-41.8-41.8-41.8z m-115.5 141c-31.1 0-56.4-25.3-56.4-56.4s25.3-56.4 56.4-56.4h115.6c7.5 0 13.4 6.1 13.4 13.4v85.8c0 7.5-6.1 13.4-13.4 13.4H673.5v0.2zM680.7 310.70000000000005m-29.1 0a29.1 29.1 0 1 1 58.2 0 29.1 29.1 0 1 1-58.2 0ZM680.7 274.6c-19.9 0-36.2 16.3-36.2 36.2 0 19.9 16.3 36.2 36.2 36.2 19.9 0 36.2-16.3 36.2-36.2 0-20-16.3-36.2-36.2-36.2z m0 58.2c-12.1 0-22-9.9-22-22s9.9-22 22-22 22 9.9 22 22c0 12.2-9.9 22-22 22zM771.9 475.5h-9.4c-2.6 0-4.7 2.1-4.7 4.7s2.1 4.7 4.7 4.7h9.4c2.6 0 4.7-2.1 4.7-4.7-0.1-2.6-2.1-4.7-4.7-4.7zM734.3 125.29999999999995h-18.8c-2.6 0-4.7 2.1-4.7 4.7s2.1 4.7 4.7 4.7h18.8c2.6 0 4.7-2.1 4.7-4.7-0.1-2.6-2.1-4.7-4.7-4.7z m-47 0h-18.8c-2.6 0-4.7 2.1-4.7 4.7s2.1 4.7 4.7 4.7h18.8c2.6 0 4.7-2.1 4.7-4.7s-2.1-4.7-4.7-4.7z m-46.8 0h-18.8c-2.6 0-4.7 2.1-4.7 4.7s2.1 4.7 4.7 4.7h18.8c2.6 0 4.7-2.1 4.7-4.7-0.1-2.6-2.1-4.7-4.7-4.7z m-47 0h-18.8c-2.6 0-4.7 2.1-4.7 4.7s2.1 4.7 4.7 4.7h18.8c2.6 0 4.7-2.1 4.7-4.7s-2.1-4.7-4.7-4.7z m-46.8 0h-18.8c-2.6 0-4.7 2.1-4.7 4.7s2.1 4.7 4.7 4.7h18.8c2.6 0 4.7-2.1 4.7-4.7s-2.1-4.7-4.7-4.7z m-47 0H481c-2.6 0-4.7 2.1-4.7 4.7s2.1 4.7 4.7 4.7h18.8c2.6 0 4.7-2.1 4.7-4.7-0.1-2.6-2.1-4.7-4.8-4.7z m-46.8 0h-18.8c-2.6 0-4.7 2.1-4.7 4.7s2.1 4.7 4.7 4.7h18.8c2.6 0 4.7-2.1 4.7-4.7s-2.1-4.7-4.7-4.7z m-46.9 0h-18.8c-2.6 0-4.7 2.1-4.7 4.7s2.1 4.7 4.7 4.7H406c2.6 0 4.7-2.1 4.7-4.7-0.1-2.6-2.1-4.7-4.7-4.7z m-46.9 0h-18.8c-2.6 0-4.7 2.1-4.7 4.7s2.1 4.7 4.7 4.7h18.8c2.6 0 4.7-2.1 4.7-4.7s-2.1-4.7-4.7-4.7z m-46.8 0h-18.8c-2.6 0-4.7 2.1-4.7 4.7s2.1 4.7 4.7 4.7h18.8c2.6 0 4.7-2.1 4.7-4.7s-2.1-4.7-4.7-4.7z m-46.2 3.5c-1.1 0-2.1 0.3-2.9 1.1-4.8 3.9-7.6 9.6-7.6 15.7v4.9c0 2.6 2.1 4.7 4.7 4.7s4.7-2.1 4.7-4.7v-4.9c0-3.3 1.5-6.4 4-8.5 2.1-1.6 2.4-4.6 0.8-6.6-0.9-1.2-2.3-1.7-3.7-1.7z m-5.7 45.1c-2.6 0-4.7 2.1-4.7 4.7v18.8c0 2.6 2.1 4.7 4.7 4.7s4.7-2.1 4.7-4.7v-18.8c-0.1-2.7-2.1-4.7-4.7-4.7z m0 46.8c-2.6 0-4.7 2.1-4.7 4.7v18.8c0 2.6 2.1 4.7 4.7 4.7s4.7-2.1 4.7-4.7v-18.8c-0.1-2.5-2.1-4.7-4.7-4.7z m0 47c-2.6 0-4.7 2.1-4.7 4.7v18.8c0 2.6 2.1 4.7 4.7 4.7s4.7-2.1 4.7-4.7v-18.8c-0.1-2.7-2.1-4.7-4.7-4.7z m0 46.8c-2.6 0-4.7 2.1-4.7 4.7V337.9c0 2.6 2.1 4.7 4.7 4.7s4.7-2.1 4.7-4.7v-18.8c-0.1-2.4-2.1-4.6-4.7-4.6z m0 46.9c-2.6 0-4.7 2.1-4.7 4.7V384.9c0 2.6 2.1 4.7 4.7 4.7s4.7-2.1 4.7-4.7v-18.8c-0.1-2.6-2.1-4.7-4.7-4.7z m0 46.9c-2.6 0-4.7 2.1-4.7 4.7v18.8c0 2.6 2.1 4.7 4.7 4.7s4.7-2.1 4.7-4.7V412.9c-0.1-2.5-2.1-4.6-4.7-4.6z m0 46.9c-2.6 0-4.7 2.1-4.7 4.7v4.8c0 6.2 2.8 11.9 7.6 15.8 2.1 1.6 5 1.3 6.6-0.8 1.6-2.1 1.3-5-0.8-6.6-2.6-2.1-4.1-5.1-4.1-8.5v-4.8c0-2.5-2-4.6-4.6-4.6z m474 20.3h-18.8c-2.6 0-4.7 2.1-4.7 4.7s2.1 4.7 4.7 4.7h18.8c2.6 0 4.7-2.1 4.7-4.7-0.1-2.6-2.1-4.7-4.7-4.7z m-47 0h-18.8c-2.6 0-4.7 2.1-4.7 4.7s2.1 4.7 4.7 4.7h18.8c2.6 0 4.7-2.1 4.7-4.7s-2.1-4.7-4.7-4.7z m-46.8 0h-18.8c-2.6 0-4.7 2.1-4.7 4.7s2.1 4.7 4.7 4.7h18.8c2.6 0 4.7-2.1 4.7-4.7-0.1-2.6-2.1-4.7-4.7-4.7z m-47 0h-18.8c-2.6 0-4.7 2.1-4.7 4.7s2.1 4.7 4.7 4.7h18.8c2.6 0 4.7-2.1 4.7-4.7s-2.1-4.7-4.7-4.7z m-46.8 0H528c-2.6 0-4.7 2.1-4.7 4.7s2.1 4.7 4.7 4.7h18.8c2.6 0 4.7-2.1 4.7-4.7s-2.1-4.7-4.7-4.7z m-46.9 0h-18.8c-2.6 0-4.7 2.1-4.7 4.7s2.1 4.7 4.7 4.7h18.8c2.6 0 4.7-2.1 4.7-4.7-0.1-2.6-2.1-4.7-4.7-4.7z m-46.9 0h-18.8c-2.6 0-4.7 2.1-4.7 4.7s2.1 4.7 4.7 4.7H453c2.6 0 4.7-2.1 4.7-4.7s-2.1-4.7-4.7-4.7z m-46.9 0h-18.8c-2.6 0-4.7 2.1-4.7 4.7s2.1 4.7 4.7 4.7h18.8c2.6 0 4.7-2.1 4.7-4.7-0.1-2.6-2.1-4.7-4.7-4.7z m-46.9 0h-18.8c-2.6 0-4.7 2.1-4.7 4.7s2.1 4.7 4.7 4.7h18.8c2.6 0 4.7-2.1 4.7-4.7s-2.1-4.7-4.7-4.7z m-46.9 0h-18.8c-2.6 0-4.7 2.1-4.7 4.7s2.1 4.7 4.7 4.7h18.8c2.6 0 4.7-2.1 4.7-4.7s-2.1-4.7-4.7-4.7zM771.9 125.29999999999995h-9.4c-2.6 0-4.7 2.1-4.7 4.7s2.1 4.7 4.7 4.7h9.4c2.6 0 4.7-2.1 4.7-4.7-0.1-2.6-2.1-4.7-4.7-4.7z"  horiz-adv-x="1024" />

    
    <glyph glyph-name="youxi" unicode="&#58933;" d="M99.443 587.695v-440.708c0-47.506 38.381-86.014 85.727-86.014h108.563c41.993 0 77.804 30.519 84.598 72.098l1.471 8.987c6.793 41.579 42.605 72.097 84.598 72.097h104.09c41.993 0 77.804-30.518 84.598-72.097l1.467-8.987c6.793-41.579 42.604-72.098 84.596-72.098h108.565c47.346 0 85.727 38.509 85.727 86.014V587.695c0 47.502-38.381 86.013-85.727 86.013H185.17c-47.346 0-85.727-38.511-85.727-86.013zM99.443 587.695v-19.142c16.256 36.981 37.492 71.277 62.864 102.036-36.241-10.041-62.864-43.339-62.864-82.894zM933.443 587.695c0 47.502-38.381 86.013-85.727 86.013h-14.538c55.525-66.059 91.818-148.818 100.265-239.66V587.695zM99.443 217.741v-70.753c0-47.506 38.381-86.014 85.727-86.014h31c-49.849 42.49-90.015 96.001-116.727 156.767zM933.443 146.987V352.246c-10.823-116.409-67.376-219.545-151.524-291.273h65.797c47.346 0 85.727 38.509 85.727 86.014zM103.954 413.656c0 100.862 39.661 192.459 104.237 260.051H185.17c-7.921 0-15.581-1.1-22.862-3.118-25.372-30.759-46.608-65.056-62.864-102.036V217.74c26.712-60.766 66.878-114.276 116.727-156.767h77.563a85.216 85.216 0 0 1 35.55 7.755c-132.669 58.233-225.33 190.759-225.33 344.928zM933.443 352.246v81.801c-8.446 90.842-44.739 173.601-100.265 239.66h-80.433c64.575-67.592 104.236-159.189 104.236-260.051 0-137.06-73.238-257.01-182.712-322.864 15.834-18.386 39.194-29.819 64.881-29.819h42.767c84.15 71.729 140.703 174.864 151.526 291.273zM145.162 434.166c0 95.688 42.434 181.466 109.51 239.542H208.19c-64.575-67.592-104.237-159.189-104.237-260.051 0-154.17 92.661-286.695 225.329-344.928 24.087 11.029 42.406 32.959 48.237 60.091-133.962 36.934-232.357 159.641-232.357 305.346zM856.982 413.656c0 100.862-39.661 192.459-104.236 260.051h-83.634c67.076-58.076 109.51-143.853 109.51-239.542 0-108.24-54.308-203.781-137.149-260.909a85.943 85.943 0 0 0 11.615-31.199l1.467-8.987a85.859 85.859 0 0 1 19.715-42.279c109.474 65.855 182.712 185.805 182.712 322.865zM778.622 434.166c0 95.688-42.434 181.466-109.51 239.542h-91.416c73.528-45.207 122.565-126.389 122.565-219.032 0-110.036-69.176-203.901-166.405-240.52h34.633c30.519 0 57.76-16.128 72.983-40.898 82.841 57.127 137.15 152.668 137.15 260.908zM186.369 454.675c0 92.644 49.038 173.825 122.565 219.032H254.67c-67.076-58.076-109.51-143.853-109.51-239.542 0-145.705 98.395-268.412 232.357-305.347 0.302 1.405 0.578 2.821 0.812 4.253l1.471 8.987c3.913 23.952 17.467 44.217 36.274 57.108-129.098 13.606-229.705 122.804-229.705 255.509zM700.261 454.675c0 92.644-49.038 173.825-122.565 219.032H308.935C235.407 628.5 186.37 547.318 186.37 454.675c0-132.705 100.606-241.904 229.706-255.509 13.841 9.487 30.521 14.988 48.324 14.988h69.457c97.229 36.621 166.404 130.485 166.404 240.521zM424.739 278.023c-108.89 0-197.162 88.272-197.162 197.162s88.272 197.162 197.162 197.162 197.162-88.272 197.162-197.162-88.272-197.162-197.162-197.162zM424.739 672.347c-108.89 0-197.162-88.272-197.162-197.162s88.272-197.162 197.162-197.162 197.162 88.272 197.162 197.162-88.272 197.162-197.162 197.162z m-18.576-314.031c-75.872 0-137.378 61.506-137.378 137.378s61.506 137.378 137.378 137.378S543.54 571.566 543.54 495.694s-61.506-137.378-137.377-137.378zM406.163 495.694m-137.378 0a137.378 137.378 0 1 1 274.756 0 137.378 137.378 0 1 1-274.756 0ZM847.716 655.708c37.345 0 67.727-30.51 67.727-68.013v-440.708c0-37.503-30.382-68.014-67.727-68.014H739.152a67.63 67.63 0 0 0-43.823 16.157c-12.239 10.431-20.41 24.936-23.009 40.842l-1.468 8.989c-8.256 50.523-51.306 87.194-102.363 87.194H464.4c-51.059 0-94.109-36.671-102.362-87.19l-1.471-8.991c-2.6-15.908-10.772-30.414-23.011-40.845a67.628 67.628 0 0 0-43.823-16.157H185.17c-37.345 0-67.727 30.511-67.727 68.014V587.695c0 37.502 30.382 68.013 67.727 68.013h662.546m0 18H185.17c-47.346 0-85.727-38.51-85.727-86.013v-440.708c0-47.506 38.381-86.014 85.727-86.014h108.563c41.993 0 77.804 30.519 84.598 72.098l1.471 8.987c6.793 41.579 42.606 72.097 84.598 72.097h104.09c41.993 0 77.804-30.518 84.598-72.097l1.467-8.987c6.793-41.579 42.604-72.098 84.596-72.098h108.565c47.346 0 85.727 38.509 85.727 86.014V587.695c0 47.502-38.381 86.013-85.727 86.013zM771.748 375.666c-28.199 0-51.061 22.863-51.061 51.063 0 28.199 22.862 51.061 51.061 51.061 28.201 0 51.061-22.862 51.061-51.061s-22.86-51.063-51.061-51.063z m-136.162 0c-28.201 0-51.061 22.863-51.061 51.063 0 28.199 22.86 51.061 51.061 51.061 28.199 0 51.061-22.862 51.061-51.061s-22.862-51.063-51.061-51.063z m-204.247 0h-41.206c-5.442 0-9.854-4.412-9.854-9.854v-41.206c0-9.4-7.62-17.02-17.02-17.02h-68.082c-9.4 0-17.02 7.62-17.02 17.02v41.206c0 5.442-4.412 9.854-9.854 9.854h-41.206c-9.4 0-17.02 7.62-17.02 17.02v68.082c0 9.401 7.621 17.022 17.022 17.022h41.204c5.442 0 9.854 4.412 9.854 9.854V528.85c0 9.4 7.62 17.02 17.02 17.02h68.082c9.4 0 17.02-7.62 17.02-17.02v-41.206c0-5.442 4.412-9.854 9.854-9.854h41.207c9.4 0 17.02-7.62 17.02-17.02v-68.082c0.001-9.401-7.62-17.022-17.021-17.022zM375.357 595.531h-124.12c-9.941 0-18 8.059-18 18s8.059 18 18 18h124.12c9.941 0 18-8.059 18-18s-8.059-18-18-18zM191.301 595.531h-10.545c-9.941 0-18 8.059-18 18s8.059 18 18 18h10.545c9.941 0 18-8.059 18-18s-8.06-18-18-18z"  horiz-adv-x="1024" />

    
    <glyph glyph-name="tubiaozhizuomoban" unicode="&#58945;" d="M627.2 628.4c0 64.1-51.5 116-115 116s-115-51.9-115-116m54.8 0c0 33.6 27 60.8 60.2 60.8s60.2-27.2 60.2-60.8M627.2 620.4c-4.4 0-8 3.6-8 8 0 59.6-48 108-107 108s-107-48.4-107-108c0-4.4-3.6-8-8-8s-8 3.6-8 8c0 68.4 55.2 124 123 124s123-55.6 123-124c0-4.5-3.6-8-8-8z m-54.8 0c-4.4 0-8 3.6-8 8 0 29.1-23.4 52.8-52.2 52.8-28.8 0-52.2-23.7-52.2-52.8 0-4.4-3.6-8-8-8s-8 3.6-8 8c0 37.9 30.6 68.8 68.2 68.8s68.2-30.8 68.2-68.8c0-4.5-3.5-8-8-8zM736.7 21.2h-449c-21.3 0-38.5 17.3-38.5 38.5v509c0 21.3 17.3 38.5 38.5 38.5h448.9c21.3 0 38.5-17.3 38.5-38.5v-508.9c0.1-21.3-17.2-38.6-38.4-38.6zM736.7 13.2h-449c-25.7 0-46.5 20.9-46.5 46.5v509c0 25.7 20.9 46.5 46.5 46.5h448.9c25.7 0 46.5-20.9 46.5-46.5v-508.9c0.1-25.7-20.8-46.6-46.4-46.6z m-449 586c-16.8 0-30.5-13.7-30.5-30.5v-508.9c0-16.8 13.7-30.5 30.5-30.5h448.9c16.8 0 30.5 13.7 30.5 30.5V568.7c0 16.8-13.7 30.5-30.5 30.5H287.7zM737.2 198.4V586.7c0 10.7-8.6 19.3-19.2 19.3H306.4c-10.6 0-19.2-8.6-19.2-19.3v-495.4c0-10.7 8.6-19.3 19.2-19.3h311.8c5.3 0 10.4 2.2 14 6.1L732 185.2c3.3 3.6 5.2 8.3 5.2 13.2zM618.2 64H306.4c-15 0-27.2 12.2-27.2 27.3V586.7c0 15.1 12.2 27.3 27.2 27.3H718c15 0 27.2-12.2 27.2-27.3v-388.3c0-6.9-2.6-13.6-7.3-18.6l-99.8-107.1c-5.1-5.5-12.4-8.7-19.9-8.7zM306.4 598c-6.2 0-11.2-5.1-11.2-11.3v-495.4c0-6.2 5-11.3 11.2-11.3h311.8c3.1 0 6.1 1.3 8.2 3.6l99.8 107.1c2 2.1 3 4.8 3 7.7V586.7c0 6.2-5 11.3-11.2 11.3H306.4zM352.2 657.8h320v-86h-320zM672.2 563.8h-320c-4.4 0-8 3.6-8 8v86c0 4.4 3.6 8 8 8h320c4.4 0 8-3.6 8-8v-86c0-4.4-3.6-8-8-8z m-312 16h304v70h-304v-70zM590.2 614.8m-15.4 0a15.4 15.4 0 1 1 30.8 0 15.4 15.4 0 1 1-30.8 0ZM590.2 591.4c-12.9 0-23.4 10.5-23.4 23.4s10.5 23.4 23.4 23.4 23.4-10.5 23.4-23.4-10.5-23.4-23.4-23.4z m0 30.8c-4.1 0-7.4-3.3-7.4-7.4s3.3-7.4 7.4-7.4 7.4 3.3 7.4 7.4-3.3 7.4-7.4 7.4zM434.2 614.8m-15.4 0a15.4 15.4 0 1 1 30.8 0 15.4 15.4 0 1 1-30.8 0ZM434.2 591.4c-12.9 0-23.4 10.5-23.4 23.4s10.5 23.4 23.4 23.4 23.4-10.5 23.4-23.4-10.6-23.4-23.4-23.4z m0 30.8c-4.1 0-7.4-3.3-7.4-7.4s3.3-7.4 7.4-7.4 7.4 3.3 7.4 7.4-3.4 7.4-7.4 7.4zM736.1 192.3L625 74.3v89.6c0 15.7 12.8 28.5 28.5 28.5h82.6zM625 66.3c-1 0-2 0.2-2.9 0.6-3 1.2-5.1 4.2-5.1 7.4v89.6c0 20.1 16.4 36.5 36.5 36.5h82.6c3.2 0 6.1-1.9 7.3-4.8s0.7-6.3-1.5-8.7L630.8 68.8c-1.5-1.6-3.6-2.5-5.8-2.5z m28.5 118c-11.3 0-20.5-9.2-20.5-20.5v-69.4l84.6 89.9h-64.1zM684.4 471.7H340c-8.3 0-15 6.7-15 15s6.7 15 15 15h344.4c8.3 0 15-6.7 15-15s-6.7-15-15-15zM684.4 463.7H340c-12.7 0-23 10.3-23 23s10.3 23 23 23h344.4c12.7 0 23-10.3 23-23s-10.3-23-23-23z m-344.4 30c-3.9 0-7-3.1-7-7s3.1-7 7-7h344.4c3.9 0 7 3.1 7 7s-3.1 7-7 7H340zM684.4 386.7H340c-8.3 0-15 6.7-15 15s6.7 15 15 15h344.4c8.3 0 15-6.7 15-15s-6.7-15-15-15zM684.4 378.7H340c-12.7 0-23 10.3-23 23s10.3 23 23 23h344.4c12.7 0 23-10.3 23-23s-10.3-23-23-23z m-344.4 30c-3.9 0-7-3.1-7-7s3.1-7 7-7h344.4c3.9 0 7 3.1 7 7s-3.1 7-7 7H340zM684.4 301.7H340c-8.3 0-15 6.7-15 15s6.7 15 15 15h344.4c8.3 0 15-6.7 15-15s-6.7-15-15-15zM684.4 293.7H340c-12.7 0-23 10.3-23 23s10.3 23 23 23h344.4c12.7 0 23-10.3 23-23s-10.3-23-23-23z m-344.4 30c-3.9 0-7-3.1-7-7s3.1-7 7-7h344.4c3.9 0 7 3.1 7 7s-3.1 7-7 7H340zM684.4 216.7H340c-8.3 0-15 6.7-15 15s6.7 15 15 15h344.4c8.3 0 15-6.7 15-15s-6.7-15-15-15zM684.4 208.7H340c-12.7 0-23 10.3-23 23s10.3 23 23 23h344.4c12.7 0 23-10.3 23-23s-10.3-23-23-23z m-344.4 30c-3.9 0-7-3.1-7-7s3.1-7 7-7h344.4c3.9 0 7 3.1 7 7s-3.1 7-7 7H340z"  horiz-adv-x="1024" />

    
    <glyph glyph-name="yuechaxun" unicode="&#58990;" d="M881.777778 463.644444c62.577778-79.644444 91.022222-170.666667 91.022222-267.377777 0-85.333333-39.822222-159.288889-113.777778-210.488889-39.822222-28.444444-85.333333-51.2-142.222222-68.266667-56.888889-17.066667-130.844444-22.755556-204.8-22.755555s-142.222222 5.688889-204.8 22.755555c-56.888889 17.066667-102.4 39.822222-142.222222 68.266667-73.955556 56.888889-113.777778 130.844444-113.777778 210.488889 0 68.266667 17.066667 136.533333 51.2 204.8 5.688889 17.066667 28.444444 22.755556 39.822222 11.377777 17.066667-5.688889 22.755556-28.444444 11.377778-39.822222l-5.688889-5.688889c-28.444444-51.2-39.822222-108.088889-39.822222-164.977777 0-62.577778 28.444444-119.466667 85.333333-164.977778 68.266667-51.2 176.355556-79.644444 312.888889-79.644445 130.844444 0 238.933333 28.444444 312.888889 79.644445 56.888889 39.822222 85.333333 102.4 85.333333 164.977778 0 187.733333-136.533333 318.577778-267.377777 369.777777-11.377778 5.688889-17.066667 17.066667-17.066667 28.444445s5.688889 22.755556 17.066667 28.444444c34.133333 22.755556 56.888889 45.511111 56.888888 73.955556s-17.066667 51.2-51.2 73.955555c-34.133333 22.755556-85.333333 34.133333-136.533333 34.133334s-96.711111-11.377778-136.533333-34.133334c-34.133333-22.755556-51.2-45.511111-51.2-73.955555s22.755556-56.888889 56.888889-73.955556c11.377778-5.688889 17.066667-17.066667 17.066666-28.444444s-5.688889-22.755556-17.066666-28.444445c-28.444444-11.377778-56.888889-28.444444-85.333334-45.511111-153.6-96.711111-142.222222-227.555556-199.111111-187.733333-39.822222 0 45.511111 176.355556 164.977778 238.933333l45.511111 28.444445c-28.444444 28.444444-45.511111 62.577778-45.511111 96.711111 0 22.755556 5.688889 45.511111 22.755556 68.266666 11.377778 22.755556 34.133333 39.822222 56.888888 51.2 45.511111 28.444444 108.088889 45.511111 170.666667 45.511112s125.155556-17.066667 170.666667-45.511112c22.755556-17.066667 39.822222-34.133333 56.888889-51.2 17.066667-22.755556 22.755556-45.511111 22.755555-68.266666 0-34.133333-17.066667-68.266667-45.511111-96.711111 68.266667-39.822222 125.155556-85.333333 170.666667-142.222223z m-551.822222-238.933333c0 17.066667 11.377778 28.444444 28.444444 28.444445h125.155556v62.577777H358.4c-17.066667 0-28.444444 11.377778-28.444444 28.444445s11.377778 28.444444 28.444444 28.444444h79.644444L364.088889 446.577778c-11.377778 11.377778-11.377778 34.133333 0 45.511111 11.377778 11.377778 34.133333 11.377778 45.511111 0L512 389.688889l102.4 102.4c11.377778 11.377778 34.133333 11.377778 45.511111 0s11.377778-34.133333 0-45.511111l-68.266667-68.266667h79.644445c17.066667 0 28.444444-11.377778 28.444444-28.444444s-11.377778-28.444444-28.444444-28.444445H546.133333v-62.577778h125.155556c17.066667 0 28.444444-11.377778 28.444444-28.444444s-11.377778-28.444444-28.444444-28.444444H546.133333V99.555556c0-17.066667-11.377778-28.444444-28.444444-28.444445s-28.444444 11.377778-28.444445 28.444445v91.022222H364.088889c-17.066667 0-34.133333 17.066667-34.133333 34.133333z"  horiz-adv-x="1024" />

    
    <glyph glyph-name="tongzhi2" unicode="&#59024;" d="M341.333333 42.666667v238.933333h68.266667v-170.666667l375.466667-136.533333v170.666667h68.266666v-273.066667zM238.933333 588.8h68.266667v-170.666667H238.933333V588.8zM307.2 258.833067v17.066666A204.8 204.8 0 1 0 307.2 628.701867v17.066666L1058.133333 896v-887.466667zM989.866667 793.6L307.2 554.666667a126.293333 126.293333 0 0 1-102.4 34.133333 136.533333 136.533333 0 0 1 0-273.066667 126.293333 126.293333 0 0 1 102.4 34.133334l682.666667-238.933334V793.6z"  horiz-adv-x="1058" />

    
    <glyph glyph-name="tongzhi3" unicode="&#58888;" d="M670.657 226.401c-7.872 0-15.744 3.003-21.752 9.009-12.013 12.012-12.013 31.488 0 43.502 27.598 27.594 42.792 64.285 42.792 103.309 0 39.026-15.194 75.715-42.792 103.312-12.013 12.013-12.013 31.488 0 43.502 12.014 12.013 31.488 12.012 43.503-0.001 39.22-39.215 60.811-91.354 60.811-146.813 0-55.457-21.591-107.593-60.811-146.811-6.008-6.006-13.88-9.009-21.751-9.009M802.156 154.774c-7.872 0-15.745 3.003-21.752 9.01-12.013 12.012-12.013 31.488 0 43.501 46.729 46.727 72.462 108.854 72.462 174.936 0 66.083-25.733 128.209-72.462 174.938-12.013 12.012-12.013 31.488 0 43.502 12.015 12.012 31.489 12.012 43.503 0 58.347-58.348 90.479-135.923 90.479-218.439 0-82.511-32.132-160.091-90.479-218.437-6.008-6.008-13.88-9.011-21.751-9.011M515.967 51.056c-8.657-0.001-17.161 3.09-24.079 9.065L310.774 216.572H145.358c-20.406 0-37.01 16.604-37.01 37.014V510.86c0 20.407 16.604 37.009 37.01 37.009h165.416l181.113 156.452c11.093 9.582 26.265 11.747 39.594 5.646 13.328-6.101 21.61-18.994 21.61-33.653v-588.186c0-14.658-8.282-27.555-21.61-33.653-5.014-2.294-10.293-3.419-15.514-3.419m-356.35 216.785H316.08a37.001 37.001 0 0 0 24.191-9.003l161.552-139.553V645.157l-161.55-139.552a37.018 37.018 0 0 0-24.193-9.002H159.617v-228.762z"  horiz-adv-x="1024" />

    
    <glyph glyph-name="iconzhengli-" unicode="&#58893;" d="M512 384.682667m-266.24 0a266.24 266.24 0 1 1 532.48 0 266.24 266.24 0 1 1-532.48 0ZM635.562667 413.354667c-11.605333 0-20.48 8.874667-20.48 20.48V486.4c0 11.605333 8.874667 20.48 20.48 20.48s20.48-8.874667 20.48-20.48v-52.565333c0-11.605333-8.874667-20.48-20.48-20.48zM410.282667 417.450667c-5.461333 0-10.24 2.048-14.336 6.144l-36.864 36.864c-8.192 8.192-8.192 21.162667 0 28.672 8.192 8.192 21.162667 8.192 28.672 0l36.864-36.864c8.192-8.192 8.192-21.162667 0-28.672-4.096-4.096-8.874667-6.144-14.336-6.144zM410.282667 417.450667h-52.565334c-11.605333 0-20.48 8.874667-20.48 20.48s8.874667 20.48 20.48 20.48h52.565334c11.605333 0 20.48-8.874667 20.48-20.48s-8.874667-20.48-20.48-20.48zM515.413333 233.813333c-51.882667 0-101.034667 23.210667-133.802666 63.488-7.509333 8.874667-6.144 21.845333 2.730666 28.672 8.874667 7.509333 21.845333 6.144 28.672-2.730666 25.258667-30.72 62.805333-48.469333 102.4-48.469334 39.594667 0 77.141333 17.749333 102.4 48.469334 7.509333 8.874667 19.797333 10.24 28.672 2.730666 8.874667-7.509333 10.24-19.797333 2.730667-28.672-33.450667-40.277333-81.92-63.488-133.802667-63.488zM512 22.186667c-199.338667 0-361.813333 162.474667-361.813333 361.813333s162.474667 361.813333 361.813333 361.813333 361.813333-162.474667 361.813333-361.813333-162.474667-361.813333-361.813333-361.813333z m0 682.666666c-176.810667 0-320.853333-144.042667-320.853333-320.853333s144.042667-320.853333 320.853333-320.853333 320.853333 144.042667 320.853333 320.853333-144.042667 320.853333-320.853333 320.853333z"  horiz-adv-x="1024" />

    
    <glyph glyph-name="shezhi" unicode="&#58896;" d="M920 240.8l-77.8 44.9c5.4 23.2 8.4 47.4 8.4 72.3s-3 49.1-8.4 72.3l77.8 44.9c5.7 3.3 7.7 10.6 4.4 16.3l-80 138.6c-3.3 5.7-10.6 7.7-16.3 4.4l-77.8-44.9c-35.2 33-77.9 58.1-125.2 72.4v89.8c0 6.6-5.4 11.9-11.9 11.9H453c-6.6 0-11.9-5.4-11.9-11.9V662c-47.4-14.3-90.1-39.4-125.2-72.4l-77.9 45c-5.7 3.3-13 1.3-16.3-4.4l-80-138.6c-3.3-5.7-1.3-13 4.4-16.3l77.8-44.9c-5.4-23.2-8.4-47.4-8.4-72.3s3-49.1 8.4-72.3l-77.9-45c-5.7-3.3-7.7-10.6-4.4-16.3l80-138.6c3.3-5.7 10.6-7.7 16.3-4.4l77.8 44.9c35.2-33 77.9-58.1 125.2-72.4v-89.8c0-6.6 5.4-11.9 11.9-11.9h160c6.6 0 11.9 5.4 11.9 11.9V54c47.4 14.3 90.1 39.4 125.2 72.4l77.8-44.9c5.7-3.3 13-1.3 16.3 4.4l80 138.6c3.6 5.7 1.7 13.1-4 16.3zM577.2-29.7h-160c-16.5 0-29.9 13.4-29.9 29.9V77c-40 13.9-77.5 35.6-109.6 63.4L211.1 102c-4.5-2.6-9.7-4-14.9-4-10.7 0-20.6 5.7-25.9 14.9l-80 138.6c-4 6.9-5 14.9-3 22.6 2.1 7.7 7 14.2 13.9 18.1l66.5 38.4c-4 21-6.1 42.2-6.1 63.3s2 42.4 6.1 63.3l-66.5 38.4c-6.9 4-11.8 10.4-13.9 18.1-2.1 7.7-1 15.8 3 22.6l80 138.6c5.3 9.2 15.2 14.9 25.9 14.9 5.2 0 10.4-1.4 14.9-4l66.6-38.4c32.2 27.9 69.7 49.5 109.6 63.4v76.8c0 16.5 13.4 29.9 29.9 29.9h160c16.5 0 29.9-13.4 29.9-29.9v-76.8c40-13.9 77.5-35.6 109.6-63.4l66.6 38.4c4.5 2.6 9.7 4 14.9 4 10.7 0 20.6-5.7 25.9-14.9l80-138.6c4-6.9 5-14.9 3-22.6-2.1-7.7-7-14.1-13.9-18.1l-66.5-38.4c4-21 6.1-42.2 6.1-63.3 0-21.1-2-42.4-6.1-63.3l66.5-38.4c6.9-4 11.8-10.4 13.9-18.1 2.1-7.7 1-15.8-3-22.7l-80-138.6c-5.3-9.2-15.2-14.9-25.9-14.9-5.2 0-10.4 1.4-14.9 4l-66.6 38.4c-32.2-27.9-69.7-49.5-109.6-63.4v-76.8c-0.1-16.4-13.5-29.8-29.9-29.8z m-154.1 35.8h148.1V90c0 7.9 5.2 14.9 12.7 17.1 43.7 13.2 84.6 36.8 118.2 68.3 5.8 5.4 14.4 6.4 21.2 2.5l72.7-42 74 128.2-72.6 41.9c-6.8 3.9-10.3 11.9-8.5 19.6 5.2 22.5 7.9 45.5 7.9 68.3s-2.7 45.8-7.9 68.3c-1.8 7.7 1.7 15.6 8.5 19.6l72.6 41.9-74 128.2-72.7-42c-6.8-3.9-15.5-3-21.2 2.5-33.6 31.5-74.4 55.1-118.2 68.3-7.6 2.3-12.7 9.2-12.7 17.1v83.8H423.1v-83.8c0-7.9-5.2-14.9-12.7-17.1-43.7-13.2-84.6-36.8-118.2-68.3-5.8-5.4-14.4-6.4-21.2-2.5l-72.7 42-74-128.2 72.6-41.9c6.8-3.9 10.3-11.9 8.5-19.6-5.2-22.5-7.9-45.5-7.9-68.3s2.7-45.8 7.9-68.3c1.8-7.7-1.7-15.6-8.5-19.6l-72.6-41.9 74-128.2 72.7 42c6.8 3.9 15.5 3 21.2-2.5 33.6-31.5 74.4-55.1 118.2-68.3 7.6-2.3 12.7-9.2 12.7-17.1v-83.9zM497.2 231.4c-89.6 0-162.5 72.9-162.5 162.5s72.9 162.5 162.5 162.5 162.5-72.9 162.5-162.5-72.9-162.5-162.5-162.5z m0 289.2c-69.8 0-126.7-56.8-126.7-126.7s56.8-126.7 126.7-126.7S623.9 324 623.9 393.9 567 520.6 497.2 520.6z"  horiz-adv-x="1024" />

    
    <glyph glyph-name="youxi1" unicode="&#58900;" d="M782 643.6c-56.5 0-106.4-77.3-242.7-81.5-137.2-4.1-188.8 81.5-260.3 81.5-91.3 0-130.2-120.3-130.2-268.7 0-148.4 3.6-280.4 94.9-280.4 107.4 0 172.9 157.5 278.7 157.2 114.2-0.3 188.7-157.2 294.6-157.2 91.3 0 94.9 132 94.9 280.4 0.2 148.4-38.6 268.7-129.9 268.7zM782 112.1c-58.5 0-106.6 41-153.2 80.6-46.2 39.3-89.8 76.5-141.5 76.6h-0.2c-45.8 0-84.9-35.7-126.3-73.5-45-41.1-91.5-83.7-152.2-83.7-27 0-49.3 9.7-66.5 28.8-14.5 16.2-25.1 38.8-32.4 69.3C97.1 263.2 96 332.1 96 410.1c0 80.3 11.2 148.4 32.3 197 32.1 73.8 80.5 89.3 115.5 89.3 34.1 0 63.4-16.4 94.4-33.7 40.2-22.5 85.8-47.9 156.3-47.9 3 0 6 0 9.1 0.1 77.6 2.3 125.7 29.8 164.3 51.9 27.8 15.9 51.8 29.6 78.9 29.6 35 0 83.4-15.5 115.5-89.3 21.1-48.6 32.3-116.7 32.3-197 0-78-1-146.9-13.7-199.9-7.3-30.4-17.9-53.1-32.4-69.3-17.2-19.1-39.6-28.8-66.5-28.8zM487.1 304.6h0.3c64.6-0.2 115.3-43.3 164.3-85 43.6-37.1 84.8-72.2 130.3-72.2 22.2 0 49.5 8.1 64.6 71 11.8 49.2 12.7 118.8 12.7 191.7 0 75.5-10.2 138.7-29.4 183-19.6 45.2-47.6 68.1-83.2 68.1-17.8 0-37.1-11-61.4-25-39.8-22.7-94.3-53.9-180.7-56.5-3.4-0.1-6.8-0.2-10.1-0.2-79.7 0-131.7 29.1-173.5 52.4-29.2 16.3-52.3 29.2-77.2 29.2-35.6 0-63.5-22.9-83.2-68.1-19.2-44.2-29.4-107.5-29.4-183 0-73 1-142.5 12.7-191.7 15-63 42.4-71 64.6-71 47 0 86.6 36.2 128.4 74.4 44.6 40.8 90.7 82.9 150.2 82.9zM495.3 580.5c-9.7 0-17.6 7.9-17.6 17.6v99.8c0 9.7 7.9 17.6 17.6 17.6s17.6-7.9 17.6-17.6v-99.8c0-9.7-7.9-17.6-17.6-17.6zM288.6 315c-9.7 0-17.6 7.9-17.6 17.6V475.9c0 9.7 7.9 17.6 17.6 17.6s17.6-7.9 17.6-17.6v-143.3c0-9.7-7.9-17.6-17.6-17.6zM360.2 386.7H216.9c-9.7 0-17.6 7.9-17.6 17.6s7.9 17.6 17.6 17.6h143.3c9.7 0 17.6-7.9 17.6-17.6s-7.9-17.6-17.6-17.6zM639.6 404.3m-32 0a32 32 0 1 1 64 0 32 32 0 1 1-64 0ZM697.8 462.4m-32 0a32 32 0 1 1 64 0 32 32 0 1 1-64 0ZM697.8 346.1m-32 0a32 32 0 1 1 64 0 32 32 0 1 1-64 0ZM755.9 404.3m-32 0a32 32 0 1 1 64 0 32 32 0 1 1-64 0Z"  horiz-adv-x="1024" />

    
    <glyph glyph-name="zhanghu1" unicode="&#58923;" d="M672 576a160 160 0 1 1-160-160 160 160 0 0 1 160 160z m64 0A224 224 0 1 0 512 800a224 224 0 0 0 224-224zM224 64a32 32 0 0 0-64 0 352 352 0 0 0 704 0 32 32 0 0 0-64 0 288 288 0 0 1-576 0z"  horiz-adv-x="1024" />

    
    <glyph glyph-name="yinhangqia" unicode="&#58928;" d="M888.832 55.18222221999997H135.168c-46.76266667 0-84.76444445 38.00177778-84.76444445 84.76444445V644.55111111c0 46.76266667 38.00177778 84.76444445 84.76444445 84.76444444h753.55022222c46.76266667 0 84.76444445-38.00177778 84.76444445-84.76444444v-504.60444444c0.11377778-46.76266667-38.00177778-84.76444445-84.65066667-84.76444445zM135.168 666.5102222200001c-12.06044445 0-21.84533333-9.78488889-21.84533333-21.84533333v-504.60444444c0-12.06044445 9.78488889-21.84533333 21.84533333-21.84533334h753.55022222c12.06044445 0 21.84533333 9.78488889 21.84533333 21.84533334V644.55111111c0 12.06044445-9.78488889 21.84533333-21.84533333 21.84533334H135.168zM961.87733333 473.088H62.12266667v62.91911111l31.40266666 0.22755556h868.352zM799.63022222 222.20799999999997H626.00533333c-16.15644445 0-29.35466667 13.08444445-29.35466666 29.35466667v4.20977778c0 16.15644445 13.08444445 29.35466667 29.35466666 29.35466666h173.62488889c16.15644445 0 29.35466667-13.08444445 29.35466667-29.35466666v-4.20977778c0-16.15644445-13.19822222-29.35466667-29.35466667-29.35466667z"  horiz-adv-x="1024" />

    
    </font>
</defs>
</svg>
